<?xml version="1.0" encoding="UTF-8"?><svg id="Layer_2" xmlns="http://www.w3.org/2000/svg" viewBox="0 0 243.62 227.08"><defs><style>.cls-1{fill:#fff;}</style></defs><g id="Layer_1-2"><path class="cls-1" d="M179.68,227.08c-13.83,0-23.29-4.73-31.64-8.9-8.2-4.1-15.27-7.63-26.24-7.63s-18.04,3.53-26.22,7.62c-8.37,4.18-17.82,8.91-31.66,8.91s-23.18-4.72-31.49-8.88c-7.86-3.94-15.29-7.66-26.39-7.66-3.34,0-6.06-2.72-6.06-6.06s2.72-6.06,6.06-6.06c13.95,0,23.44,4.75,31.81,8.94,8.18,4.09,15.2,7.6,26.07,7.6s17.99-3.52,26.15-7.59c8.41-4.21,17.86-8.94,31.72-8.94s23.31,4.73,31.65,8.91c8.23,4.11,15.28,7.63,26.22,7.63s17.89-3.51,26.02-7.57c8.42-4.21,17.91-8.96,31.86-8.96,3.34,0,6.06,2.72,6.06,6.06s-2.72,6.06-6.06,6.06c-11.1,0-18.53,3.72-26.39,7.66-8.31,4.16-17.72,8.88-31.49,8.88Z"/><path class="cls-1" d="M179.68,185.74c-13.83,0-23.29-4.73-31.64-8.9-8.2-4.1-15.27-7.63-26.24-7.63s-18.04,3.53-26.22,7.63c-8.36,4.18-17.82,8.91-31.65,8.91s-23.18-4.72-31.49-8.88c-7.86-3.94-15.29-7.66-26.39-7.66-3.34,0-6.06-2.72-6.06-6.06s2.72-6.06,6.06-6.06c13.95,0,23.44,4.75,31.81,8.94,8.18,4.09,15.2,7.6,26.07,7.6s17.99-3.52,26.15-7.59c8.41-4.21,17.86-8.94,31.72-8.94s23.31,4.73,31.65,8.91c8.23,4.11,15.28,7.63,26.22,7.63s17.89-3.51,26.02-7.57c8.42-4.21,17.91-8.96,31.86-8.96,3.34,0,6.06,2.72,6.06,6.06s-2.72,6.06-6.06,6.06c-11.1,0-18.53,3.72-26.39,7.66-8.3,4.16-17.72,8.88-31.49,8.88Z"/><path class="cls-1" d="M182.79,144.31c-24.27,0-43.65-11.96-53.18-32.81-9.31-20.36-6.6-44.4,6.74-59.8,5.57-6.43,14.89-10.43,24.31-10.43,3.74,0,7.3.62,10.57,1.83,4.76,1.77,8.61,4.79,11.12,8.71l1.75,2.74,1.9-2.64c1.9-2.64,4.16-7,4.16-12.78,0-15.4-15.17-27.01-35.28-27.01-48.85,0-64.56,29.47-81.19,60.66-14.44,27.09-29.37,55.09-67.64,55.09-3.34,0-6.06-2.72-6.06-6.06s2.72-6.06,6.06-6.06c31,0,42.45-21.48,56.94-48.67C78.93,37.19,98.76,0,154.88,0c27.02,0,47.4,16.82,47.4,39.13,0,18.14-14.66,30.86-22.59,30.86-3.34,0-6.06-2.72-6.06-6.06,0-4.65-2.23-7.84-6.63-9.48-1.92-.72-4.06-1.08-6.35-1.08-5.9,0-11.84,2.45-15.13,6.25-10.13,11.71-12.14,30.97-4.88,46.84,7.47,16.35,22.84,25.73,42.16,25.73,9.54,0,16.38-3.56,23.63-7.33,8.21-4.27,17.52-9.11,31.13-9.11,3.34,0,6.06,2.72,6.06,6.06s-2.72,6.06-6.06,6.06c-10.66,0-17.55,3.58-25.53,7.73-7.86,4.09-16.74,8.72-29.24,8.72Z"/></g></svg>