<svg id="Capa_1" enable-background="new 0 0 512 512" height="512" viewBox="0 0 512 512" width="512" xmlns="http://www.w3.org/2000/svg"><g><path d="m497.449 227.365c-18.445-31.947-51.901-52.349-94.207-57.445-40.708-4.908-85.043 5.051-124.847 28.032-1.264.73-2.519 1.471-3.765 2.222-1.99-8.229-4.447-16.395-7.374-24.435-15.72-43.19-43.286-79.316-77.62-101.725-35.684-23.287-74.426-29.164-109.092-16.549-34.665 12.617-60.566 42.023-72.932 82.801-11.898 39.235-9.793 84.629 5.927 127.818 15.72 43.19 43.286 79.316 77.62 101.725 23.387 15.264 48.088 23.048 72.096 23.048 8.43 0 16.77-.983 24.942-2.916 1.77 4.247 3.816 8.394 6.144 12.425 18.445 31.947 51.901 52.349 94.207 57.445 6.788.818 13.673 1.223 20.625 1.223 34.738 0 71.055-10.105 104.222-29.255 39.804-22.98 70.595-56.401 86.7-94.104 16.739-39.188 15.799-78.362-2.646-110.31zm-396.883-144.542c23.112-5.071 48.541.565 72.674 16.315 28.934 18.884 52.311 49.731 65.826 86.862 3.938 10.818 6.895 21.882 8.859 32.993-19.262 15.776-35.22 34.289-46.891 54.463-10.219-25.87-28.274-48.336-52.438-64.107-30.65-20.003-48.736-53.795-48.38-90.393zm6.99 261.863c-28.934-18.884-52.312-49.731-65.826-86.861-13.514-37.131-15.435-75.788-5.408-108.853 6.818-22.484 18.62-40.365 34.107-52.151l-.212 21.846c-.455 46.888 22.716 90.18 61.983 115.807 30.65 20.004 48.736 53.795 48.381 90.393l-.09 9.213c-.959 9.125-.921 18.102.124 26.832-23.215 5.217-48.792-.388-73.059-16.226zm111.727-40.844c13.572-31.773 39.892-60.152 74.112-79.909 28.612-16.519 59.68-25.241 89.146-25.241 5.775 0 11.491.336 17.113 1.013 23.326 2.811 42.985 11.329 57.282 24.533l-21.551 3.585c-46.254 7.693-84.865 38.03-103.285 81.15-14.377 33.658-44.515 57.337-80.618 63.342l-35.646 5.93c-9.007-21.881-7.873-47.902 3.447-74.403zm253.224 22.047c-13.572 31.773-39.892 60.152-74.112 79.909-34.22 19.756-71.957 28.356-106.259 24.229-23.326-2.811-42.985-11.329-57.282-24.533l21.551-3.585c46.254-7.693 84.865-38.03 103.285-81.15 14.377-33.658 44.515-57.337 80.618-63.342l35.646-5.93c9.007 21.88 7.873 47.901-3.447 74.402z"/></g></svg>