<?xml version="1.0" encoding="UTF-8" standalone="no"?>
<!-- Created with Inkscape (http://www.inkscape.org/) -->

<svg
   version="1.1"
   id="svg2304"
   xml:space="preserve"
   width="682.66669"
   height="682.66669"
   viewBox="0 0 682.66669 682.66669"
   xmlns="http://www.w3.org/2000/svg"
   xmlns:svg="http://www.w3.org/2000/svg"><defs
     id="defs2308"><clipPath
       clipPathUnits="userSpaceOnUse"
       id="clipPath2318"><path
         d="M 0,512 H 512 V 0 H 0 Z"
         id="path2316" /></clipPath></defs><g
     id="g2310"
     transform="matrix(1.3333333,0,0,-1.3333333,0,682.66667)"><g
       id="g2312"><g
         id="g2314"
         clip-path="url(#clipPath2318)"><g
           id="g2320"
           transform="translate(285.9648,301.0781)"><path
             d="M 0,0 C 76.527,44.183 165.427,33.473 198.564,-23.923 231.701,-81.318 196.527,-163.663 120,-207.846 43.473,-252.028 -45.427,-241.318 -78.564,-183.923 -111.701,-126.527 -76.527,-44.183 0,0 Z"
             style="fill:none;stroke:#000000;stroke-width:30;stroke-linecap:round;stroke-linejoin:round;stroke-miterlimit:10;stroke-dasharray:none;stroke-opacity:1"
             id="path2322" /></g><g
           id="g2324"
           transform="translate(484.5288,277.1553)"><path
             d="m 0,0 -46.613,-7.754 c -40.97,-6.814 -75.636,-34.052 -91.951,-72.246 -16.315,-38.194 -50.981,-65.432 -91.951,-72.246 L -277.128,-160"
             style="fill:none;stroke:#000000;stroke-width:30;stroke-linecap:round;stroke-linejoin:round;stroke-miterlimit:10;stroke-dasharray:none;stroke-opacity:1"
             id="path2326" /></g><g
           id="g2328"
           transform="translate(264.0767,286.5811)"><path
             d="m 0,0 c -1.918,14.689 -5.522,29.672 -10.945,44.57 -30.222,83.036 -105.209,131.976 -167.486,109.309 -62.277,-22.667 -88.263,-108.358 -58.04,-191.394 30.223,-83.036 105.209,-131.975 167.486,-109.308 0.93,0.339 1.85,0.693 2.764,1.059"
             style="fill:none;stroke:#000000;stroke-width:30;stroke-linecap:round;stroke-linejoin:round;stroke-miterlimit:10;stroke-dasharray:none;stroke-opacity:1"
             id="path2330" /></g><g
           id="g2332"
           transform="translate(85.6455,440.46)"><path
             d="m 0,0 -0.458,-47.251 c -0.404,-41.531 20.4,-80.4 55.181,-103.1 34.781,-22.7 55.585,-61.569 55.182,-103.099 l -0.113,-11.639"
             style="fill:none;stroke:#000000;stroke-width:30;stroke-linecap:round;stroke-linejoin:round;stroke-miterlimit:10;stroke-dasharray:none;stroke-opacity:1"
             id="path2334" /></g></g></g></g></svg>
