<svg clip-rule="evenodd" fill-rule="evenodd" height="512" stroke-linejoin="round" stroke-miterlimit="2" viewBox="0 0 16 16" width="512" xmlns="http://www.w3.org/2000/svg"><g id="Icon"><path d="m1.47 8.03 6 6c.293.293.767.293 1.06 0l6-6c.293-.292.293-.768 0-1.06-.292-.293-.768-.293-1.06 0l-5.47 5.469s-5.47-5.469-5.47-5.469c-.292-.293-.768-.293-1.06 0-.293.292-.293.768 0 1.06z"/><path d="m1.47 3.03 6 6c.293.293.767.293 1.06 0l6-6c.293-.292.293-.768 0-1.06-.292-.293-.768-.293-1.06 0l-5.47 5.469s-5.47-5.469-5.47-5.469c-.292-.293-.768-.293-1.06 0-.293.292-.293.768 0 1.06z"/></g></svg>