<svg version="1.1" id="Capa_1" xmlns="http://www.w3.org/2000/svg" xmlns:xlink="http://www.w3.org/1999/xlink" x="0px" y="0px"
	 viewBox="0 0 511.998 511.998" style="enable-background:new 0 0 511.998 511.998;" xml:space="preserve">
<g>
	<g>
		<path d="M451.396,282.867c-6.539-7.394-15.949-11.634-25.817-11.634H370.5c-5.523,0-10,4.478-10,10c0,5.522,4.477,10,10,10h30.064
			c-1.024,4.518-2.722,8.84-5.091,12.785c-7.225,12.035-10.917,25.813-10.677,39.848c0.277,16.229-8.735,31.758-22.96,39.562
			c-12.209,6.699-22.202,16.692-28.899,28.9c-7.805,14.224-23.354,23.226-39.562,22.961c-14.042-0.267-27.814,3.451-39.849,10.677
			c-13.841,8.309-31.728,8.311-45.57,0c-12.035-7.227-25.813-10.938-39.849-10.677c-16.233,0.252-31.757-8.735-39.562-22.962
			c-6.698-12.207-16.691-22.2-28.9-28.899c-14.225-7.804-23.237-23.333-22.96-39.562c0.24-14.035-3.453-27.814-10.677-39.848
			c-8.31-13.842-8.31-31.729,0-45.57c7.225-12.034,10.917-25.813,10.677-39.849c-0.277-16.229,8.735-31.758,22.96-39.563
			c12.208-6.698,22.202-16.691,28.9-28.899c7.804-14.225,23.344-23.217,39.562-22.96c14.029,0.267,27.814-3.452,39.847-10.677
			c3.946-2.369,8.269-4.067,12.786-5.091v154.128c-5.017,0.015-10.03,1.929-13.85,5.747l-6.383,6.384
			c-3.714,3.714-5.76,8.652-5.76,13.906c0,5.254,2.046,10.192,5.76,13.906l6.384,6.384c3.834,3.833,8.869,5.75,13.906,5.75
			c5.036,0,10.073-1.917,13.908-5.751l6.382-6.383c3.714-3.714,5.76-8.652,5.76-13.906c0-0.115-0.015-0.227-0.017-0.342h45.67
			c5.523,0,10-4.478,10-10c0-5.522-4.477-10-10-10h-51.759V86.395c0-9.868-4.241-19.279-11.635-25.818
			c-7.348-6.499-17.132-9.539-26.836-8.344C86.958,66.428,0,164.877,0,281.232c0,61.488,24.041,119.394,67.694,163.047
			c43.653,43.653,101.558,67.694,163.047,67.694c116.355,0,214.804-86.957,229-202.27
			C460.936,299.996,457.895,290.214,451.396,282.867z M226.709,291.575l-5.911,5.912l-5.912-5.912l5.912-5.912L226.709,291.575z
			 M439.891,307.261c-12.964,105.304-102.879,184.713-209.15,184.713c-56.146,0-109.029-21.961-148.905-61.837
			C41.96,390.261,20,337.379,20,281.232C20,174.961,99.41,85.046,204.713,72.083c4.083-0.503,8.04,0.731,11.143,3.476
			c3.104,2.745,4.885,6.695,4.885,10.837v4.654c-8.178,1.265-16.022,4.068-23.08,8.304c-8.822,5.296-18.94,8.038-29.212,7.827
			c-23.563-0.354-46.106,12.685-57.438,33.337c-4.864,8.865-12.121,16.122-20.986,20.985c-20.654,11.332-33.74,33.878-33.337,57.438
			c0.176,10.288-2.531,20.39-7.828,29.212c-12.064,20.095-12.064,46.064,0,66.16c5.296,8.821,8.003,18.922,7.827,29.211
			c-0.403,23.561,12.683,46.106,33.337,57.438c8.865,4.864,16.122,12.121,20.986,20.985c11.332,20.654,33.875,33.757,57.438,33.339
			c10.274-0.184,20.39,2.53,29.212,7.826c10.047,6.032,21.563,9.048,33.079,9.048s23.032-3.016,33.08-9.048
			c8.822-5.296,18.928-8.011,29.212-7.826c0.354,0.006,0.704,0.009,1.057,0.009c23.174-0.002,45.22-13.003,56.381-33.348
			c4.863-8.864,12.12-16.121,20.985-20.984c20.654-11.332,33.74-33.878,33.337-57.438c-0.176-10.288,2.53-20.389,7.827-29.211
			c4.236-7.057,7.04-14.901,8.305-23.08h4.654c4.142,0,8.091,1.78,10.837,4.885C439.159,299.221,440.394,303.178,439.891,307.261z"
			/>
	</g>
</g>
<g>
	<g>
		<path d="M340.57,274.164c-1.86-1.859-4.44-2.93-7.07-2.93s-5.21,1.07-7.07,2.93c-1.86,1.86-2.93,4.44-2.93,7.07
			s1.07,5.21,2.93,7.07c1.86,1.859,4.44,2.93,7.07,2.93c2.63-0.001,5.21-1.071,7.07-2.93c1.86-1.86,2.93-4.44,2.93-7.07
			S342.43,276.024,340.57,274.164z"/>
	</g>
</g>
<g>
	<g>
		<path d="M326.65,319.544c-7.722-7.722-17.988-11.975-28.908-11.975c-10.919,0-21.185,4.253-28.908,11.975
			c-15.939,15.94-15.939,41.876,0,57.816c7.722,7.722,17.988,11.975,28.908,11.975c10.92,0,21.187-4.253,28.908-11.975
			C342.589,361.42,342.589,335.484,326.65,319.544z M312.508,363.218c-3.944,3.944-9.188,6.117-14.766,6.117
			s-10.822-2.173-14.766-6.117c-8.142-8.142-8.142-21.39,0-29.531c3.944-3.944,9.188-6.117,14.766-6.117s10.822,2.173,14.766,6.117
			C320.65,341.828,320.65,355.076,312.508,363.218z"/>
	</g>
</g>
<g>
	<g>
		<path d="M183.033,174.139c-7.722-7.721-17.987-11.974-28.908-11.974c-10.92,0-21.186,4.252-28.908,11.974
			c-7.722,7.722-11.974,17.987-11.974,28.908c0,10.92,4.252,21.187,11.974,28.908c7.97,7.97,18.439,11.954,28.908,11.954
			s20.938-3.984,28.908-11.954c7.722-7.722,11.974-17.988,11.974-28.908C195.007,192.126,190.755,181.86,183.033,174.139z
			 M168.892,217.812c-8.143,8.142-21.39,8.142-29.532,0c-3.944-3.944-6.116-9.188-6.116-14.766s2.172-10.822,6.116-14.766
			c3.944-3.944,9.188-6.116,14.766-6.116s10.822,2.172,14.766,6.116c3.944,3.944,6.116,9.188,6.116,14.766
			S172.835,213.868,168.892,217.812z"/>
	</g>
</g>
<g>
	<g>
		<path d="M373.12,319.924c-1.86-1.86-4.43-2.931-7.07-2.931c-2.63,0-5.21,1.07-7.07,2.931c-1.86,1.859-2.93,4.439-2.93,7.069
			s1.07,5.21,2.93,7.07c1.86,1.86,4.44,2.93,7.07,2.93c2.64,0,5.21-1.069,7.07-2.93c1.86-1.86,2.93-4.43,2.93-7.07
			C376.05,324.363,374.98,321.783,373.12,319.924z"/>
	</g>
</g>
<g>
	<g>
		<path d="M205.88,140.464c-1.86-1.861-4.44-2.921-7.07-2.921s-5.21,1.061-7.07,2.921c-1.86,1.859-2.93,4.439-2.93,7.079
			c0,2.631,1.07,5.211,2.93,7.07c1.86,1.86,4.44,2.93,7.07,2.93s5.21-1.069,7.07-2.93c1.86-1.859,2.93-4.439,2.93-7.07
			C208.81,144.903,207.74,142.333,205.88,140.464z"/>
	</g>
</g>
<g>
	<g>
		<path d="M209.23,235.073c-1.86-1.859-4.43-2.93-7.07-2.93c-2.63,0-5.21,1.071-7.07,2.93c-1.86,1.86-2.93,4.44-2.93,7.07
			s1.07,5.21,2.93,7.07c1.86,1.859,4.44,2.93,7.07,2.93s5.21-1.07,7.07-2.93c1.87-1.86,2.93-4.44,2.93-7.07
			S211.1,236.933,209.23,235.073z"/>
	</g>
</g>
<g>
	<g>
		<path d="M237.81,328.884c-1.86-1.86-4.44-2.931-7.07-2.931s-5.21,1.07-7.07,2.931c-1.86,1.859-2.93,4.439-2.93,7.069
			c0,2.641,1.07,5.21,2.93,7.07c1.86,1.87,4.44,2.93,7.07,2.93s5.21-1.06,7.07-2.93c1.86-1.86,2.93-4.43,2.93-7.07
			C240.74,333.323,239.67,330.743,237.81,328.884z"/>
	</g>
</g>
<g>
	<g>
		<path d="M98.48,230.193c-1.86-1.86-4.43-2.93-7.07-2.93c-2.63,0-5.21,1.069-7.07,2.93c-1.86,1.861-2.93,4.44-2.93,7.07
			s1.07,5.21,2.93,7.069c1.86,1.861,4.44,2.931,7.07,2.931c2.64,0,5.22-1.07,7.07-2.931c1.87-1.859,2.94-4.439,2.94-7.069
			S100.35,232.053,98.48,230.193z"/>
	</g>
</g>
<g>
	<g>
		<path d="M183.67,264.293c-1.86-1.859-4.44-2.93-7.07-2.93s-5.21,1.07-7.07,2.93c-1.86,1.86-2.93,4.431-2.93,7.07
			c0,2.63,1.07,5.21,2.93,7.07c1.86,1.859,4.44,2.93,7.07,2.93c2.64,0,5.21-1.07,7.07-2.93c1.86-1.86,2.93-4.44,2.93-7.07
			C186.6,268.723,185.53,266.153,183.67,264.293z"/>
	</g>
</g>
<g>
	<g>
		<path d="M143.995,257.794c-13.046-5.102-27.509-4.05-39.679,2.886c-12.171,6.937-20.447,18.845-22.706,32.67l-0.065,0.4
			c-0.767,4.694,1.88,9.28,6.33,10.964l0.379,0.144v0.001c5.318,2.012,10.856,3.007,16.371,3.007c8.071,0,16.09-2.135,23.274-6.336
			c12.093-7.072,20.235-19.071,22.34-32.921C150.941,263.988,148.348,259.497,143.995,257.794z M117.804,284.264
			c-4.131,2.417-8.741,3.576-13.389,3.591c2.291-4.038,5.647-7.43,9.804-9.801c4.07-2.319,8.573-3.47,13.136-3.444
			C125.113,278.562,121.848,281.899,117.804,284.264z"/>
	</g>
</g>
<g>
	<g>
		<path d="M256.554,388.785c-10.931-8.762-25.051-12.069-38.744-9.079l-0.396,0.087c-4.641,1.019-7.924,5.161-7.855,9.912
			l0.006,0.405c0,0.004,0,0.007,0,0.011c0.217,14.006,6.666,26.993,17.694,35.632c8.229,6.446,18.198,9.837,28.402,9.837
			c3.469,0,6.967-0.392,10.431-1.189c4.555-1.049,7.776-5.113,7.756-9.788C273.787,410.604,267.484,397.546,256.554,388.785z
			 M239.592,410.008c-3.767-2.951-6.592-6.797-8.269-11.126c4.598,0.644,8.989,2.514,12.722,5.507
			c3.656,2.93,6.398,6.708,8.039,10.944C247.584,414.703,243.28,412.896,239.592,410.008z"/>
	</g>
</g>
<g>
	<g>
		<path d="M196.758,325.959c-9.153-9.604-22.023-14.78-35.293-14.186c-23.501,1.043-42.727,20.269-43.769,43.77
			c-0.589,13.275,4.581,26.139,14.185,35.293c3.969,3.782,9.044,5.784,14.296,5.784c2.034,0,4.094-0.301,6.127-0.913
			c4.713-1.422,8.703-4.442,11.369-8.416c7.096,3.079,15.672,1.721,21.467-4.073l4-4.001c5.793-5.794,7.151-14.368,4.074-21.467
			c3.974-2.666,6.994-6.656,8.415-11.369C203.825,339.099,202.005,331.464,196.758,325.959z M182.481,340.605
			c-0.166,0.55-0.566,0.641-0.739,0.68c-3.156,0.718-6.261,1.785-9.23,3.173c-2.954,1.381-5.049,4.115-5.614,7.327
			c-0.565,3.212,0.472,6.497,2.777,8.803l4.904,4.905l-3.164,3.164l-4.904-4.904c-2.306-2.306-5.594-3.343-8.802-2.777
			c-3.211,0.563-5.946,2.658-7.327,5.612c-1.388,2.968-2.457,6.074-3.175,9.233c-0.039,0.171-0.13,0.571-0.68,0.737
			c-0.484,0.145-0.712-0.071-0.849-0.2c-5.418-5.165-8.335-12.429-8.002-19.929c0.588-13.249,11.426-24.088,24.675-24.676
			c7.501-0.334,14.764,2.584,19.928,8.002C182.41,339.892,182.627,340.121,182.481,340.605z"/>
	</g>
</g>
<g>
	<g>
		<path d="M411.57,208.403c-1.86-1.86-4.44-2.93-7.07-2.93s-5.21,1.069-7.07,2.93c-1.86,1.86-2.93,4.441-2.93,7.07
			c0,2.63,1.07,5.21,2.93,7.069c1.86,1.86,4.44,2.931,7.07,2.931s5.21-1.07,7.07-2.931c1.86-1.859,2.93-4.439,2.93-7.069
			S413.43,210.263,411.57,208.403z"/>
	</g>
</g>
<g>
	<g>
		<path d="M339.18,100.283c-1.86-1.859-4.44-2.92-7.07-2.92s-5.21,1.061-7.07,2.92c-1.86,1.87-2.93,4.45-2.93,7.08
			s1.07,5.2,2.93,7.07c1.86,1.86,4.44,2.93,7.07,2.93c2.63,0,5.21-1.07,7.07-2.93c1.86-1.87,2.93-4.44,2.93-7.07
			S341.04,102.153,339.18,100.283z"/>
	</g>
</g>
<g>
	<g>
		<path d="M401.751,166.099C401.751,166.098,401.751,166.098,401.751,166.099c-0.983-22.164-19.114-40.295-41.277-41.278
			c-12.519-0.554-24.652,4.32-33.282,13.377c-5.048,5.296-6.801,12.641-4.688,19.647c1.308,4.334,4.019,8.032,7.594,10.589
			c-0.864,2.173-1.315,4.513-1.315,6.922c0,5.001,1.948,9.703,5.484,13.239l3.708,3.708c3.537,3.537,8.239,5.485,13.24,5.485
			c2.409,0,4.749-0.452,6.922-1.315c2.558,3.574,6.256,6.286,10.59,7.594c1.956,0.59,3.937,0.878,5.894,0.878
			c5.053,0,9.936-1.926,13.753-5.564C397.431,190.75,402.307,178.619,401.751,166.099z M374.576,184.932
			c-0.049,0.01-0.145-0.033-0.172-0.062c0,0-0.016-0.027-0.033-0.101c-0.678-2.979-1.685-5.907-2.994-8.707
			c-1.381-2.953-4.116-5.048-7.328-5.612c-0.577-0.102-1.156-0.151-1.731-0.151c-2.628,0-5.179,1.037-7.071,2.929l-4.032,4.032
			l-1.904-1.904l4.032-4.031c2.305-2.306,3.342-5.59,2.778-8.802c-0.564-3.211-2.658-5.945-5.611-7.327
			c-2.8-1.31-5.729-2.317-8.71-2.995c-0.067-0.016-0.095-0.03-0.096-0.03c-0.032-0.031-0.067-0.128-0.035-0.176
			c4.642-4.872,11.175-7.496,17.918-7.194c11.911,0.528,21.655,10.272,22.184,22.183C382.07,173.73,379.448,180.26,374.576,184.932z
			"/>
	</g>
</g>
<g>
	<g>
		<path d="M511.891,223.708c-3.429-39.677-16.656-78.33-38.253-111.782c-2.996-4.64-9.186-5.972-13.825-2.978
			c-4.64,2.996-5.973,9.186-2.978,13.825c19.834,30.721,31.982,66.219,35.13,102.657c0.221,2.561-0.604,5.005-2.325,6.881
			c-1.683,1.836-3.982,2.848-6.474,2.849l-13.604,0.007c-1.291-8.872-4.29-17.381-8.875-25.02
			c-5.728-9.54-8.654-20.463-8.464-31.589c0.426-24.931-13.42-48.787-35.275-60.777c-9.591-5.262-17.441-13.112-22.703-22.703
			c-11.991-21.854-35.853-35.733-60.777-35.274c-11.108,0.167-22.048-2.736-31.589-8.464c-7.633-4.583-16.138-7.582-25.003-8.875
			v-13.6c0-2.493,1.011-4.794,2.848-6.478c1.877-1.722,4.324-2.547,6.882-2.326c37.998,3.285,74.801,16.296,106.43,37.626
			c4.579,3.088,10.795,1.879,13.882-2.7c3.088-4.578,1.879-10.794-2.7-13.882c-34.441-23.226-74.515-37.393-115.89-40.97
			c-8.095-0.705-16.156,2.038-22.124,7.513c-5.929,5.438-9.329,13.171-9.329,21.217v216.407c0,2.653,1.054,5.197,2.931,7.073
			c1.875,1.874,4.418,2.927,7.069,2.927c0.001,0,0.003,0,0.005,0l216.295-0.112c8.042-0.004,15.771-3.405,21.205-9.332
			C509.853,239.86,512.59,231.798,511.891,223.708z M295.725,235.257l15.087-15.087c1.435-1.436,3.342-2.226,5.371-2.226
			s3.937,0.79,5.372,2.226l15.066,15.066L295.725,235.257z M364.89,235.22l-29.194-29.193c-5.212-5.212-12.142-8.083-19.514-8.083
			c-7.371,0-14.301,2.871-19.513,8.083l-19.795,19.795v-91.221c6.077,4.436,13.169,7.457,20.829,8.709l0.428,0.07
			c0.546,0.09,1.089,0.134,1.628,0.134c4.097,0,7.858-2.526,9.347-6.463l0.153-0.405c5.224-13.81,3.945-29.039-3.508-41.783
			c-6.443-11.017-16.769-18.912-28.877-22.287v-9.813c5.208,1.084,10.183,3.006,14.709,5.723
			c12.753,7.657,27.357,11.575,42.226,11.313c17.583-0.306,34.438,9.474,42.901,24.898c7.096,12.934,17.683,23.521,30.617,30.618
			c15.425,8.462,25.198,25.302,24.898,42.9c-0.254,14.872,3.659,29.474,11.314,42.226c2.722,4.534,4.644,9.519,5.725,14.735
			L364.89,235.22z M276.917,93.96c4.764,2.457,8.784,6.235,11.571,11.001c2.842,4.86,4.16,10.333,3.901,15.796
			c-4.861-2.507-8.942-6.385-11.73-11.277C277.924,104.683,276.663,99.313,276.917,93.96z"/>
	</g>
</g>
<g>
	<g>
		<path d="M441.657,72.127l-0.769-0.774c-3.902-3.909-10.233-3.915-14.142-0.014s-3.916,10.233-0.014,14.143l0.713,0.718
			c1.956,1.975,4.53,2.964,7.106,2.964c2.542,0,5.086-0.964,7.036-2.895C445.511,82.383,445.543,76.052,441.657,72.127z"/>
	</g>
</g>
<g>
</g>
<g>
</g>
<g>
</g>
<g>
</g>
<g>
</g>
<g>
</g>
<g>
</g>
<g>
</g>
<g>
</g>
<g>
</g>
<g>
</g>
<g>
</g>
<g>
</g>
<g>
</g>
<g>
</g>
</svg>
