<svg id="Line" enable-background="new 0 0 32 32" height="512" viewBox="0 0 32 32" width="512" xmlns="http://www.w3.org/2000/svg"><path id="XMLID_962_" d="m31 27c0 .553-.448 1-1 1-1.278 0-2.11.416-3.072.898-1.032.517-2.201 1.102-3.928 1.102-1.736 0-2.91-.587-3.946-1.105-.96-.48-1.789-.895-3.054-.895s-2.094.415-3.054.895c-1.036.518-2.21 1.105-3.946 1.105-1.727 0-2.896-.585-3.928-1.102-.962-.482-1.794-.898-3.072-.898-.552 0-1-.447-1-1s.448-1 1-1c1.751 0 2.929.59 3.968 1.109.954.479 1.778.891 3.032.891 1.264 0 2.092-.414 3.052-.895 1.036-.517 2.211-1.105 3.948-1.105s2.912.588 3.948 1.105c.96.481 1.788.895 3.052.895 1.254 0 2.078-.412 3.032-.891 1.039-.519 2.217-1.109 3.968-1.109.552 0 1 .447 1 1z"/><path id="XMLID_961_" d="m31 22c0 .553-.448 1-1 1-1.278 0-2.11.416-3.072.898-1.032.517-2.201 1.102-3.928 1.102-1.736 0-2.91-.587-3.946-1.105-.96-.48-1.789-.895-3.054-.895s-2.094.415-3.054.895c-1.036.518-2.21 1.105-3.946 1.105-1.727 0-2.896-.585-3.928-1.102-.962-.482-1.794-.898-3.072-.898-.552 0-1-.447-1-1s.448-1 1-1c1.751 0 2.929.59 3.968 1.109.954.479 1.778.891 3.032.891 1.264 0 2.092-.414 3.052-.895 1.036-.517 2.211-1.105 3.948-1.105s2.912.588 3.948 1.105c.96.481 1.788.895 3.052.895 1.254 0 2.078-.412 3.032-.891 1.039-.519 2.217-1.109 3.968-1.109.552 0 1 .447 1 1z"/><path id="XMLID_960_" d="m16 2c.552 0 1 .448 1 1v2c0 .552-.448 1-1 1s-1-.448-1-1v-2c0-.552.448-1 1-1z"/><path id="XMLID_959_" d="m25.899 6.101c.391.391.391 1.023 0 1.414l-1.414 1.414c-.391.391-1.023.391-1.414 0s-.391-1.023 0-1.414l1.414-1.414c.391-.391 1.024-.391 1.414 0z"/><path id="XMLID_958_" d="m7.515 6.101 1.414 1.414c.391.391.391 1.023 0 1.414s-1.023.391-1.414 0l-1.414-1.414c-.391-.391-.391-1.023 0-1.414s1.023-.391 1.414 0z"/><path id="XMLID_944_" d="m30 16c-2.383 0-3.629 1.066-5.16 1.649.105-.546.16-1.097.16-1.649 0-4.962-4.038-9-9-9s-9 4.038-9 9c0 .552.055 1.103.16 1.649-1.532-.583-2.777-1.649-5.16-1.649-.552 0-1 .448-1 1 0 .553.448 1 1 1 1.278 0 2.11.416 3.072.898 1 .501 2.353 1.102 3.928 1.102 1.736 0 2.91-.587 3.946-1.105.96-.48 1.789-.895 3.054-.895s2.094.415 3.054.895c1.036.518 2.21 1.105 3.946 1.105 1.541 0 2.873-.573 3.928-1.102.962-.482 1.794-.898 3.072-.898.552 0 1-.447 1-1 0-.552-.448-1-1-1zm-7.297 1.975c-1.103-.063-1.771-.377-2.755-.87-1.036-.518-2.211-1.105-3.948-1.105s-2.912.587-3.948 1.105c-.95.476-1.694.81-2.755.87-.196-.651-.297-1.313-.297-1.975 0-3.86 3.14-7 7-7s7 3.14 7 7c0 .662-.101 1.324-.297 1.975z"/></svg>