<svg id="Layer_1" xmlns="http://www.w3.org/2000/svg" viewBox="0 0 583.48 471.07"><path d="m417.32,322.17c-10.14,0-20.32-.99-30.25-2.95-30.81-6.08-58.76-21.19-80.83-43.72-23-23.47-37.75-52.98-42.66-85.35-1.57-10.34-2.1-20.9-1.57-31.36,1.98-39.11,18.48-75.75,46.47-103.18,29.24-28.65,67.89-44.43,108.82-44.43,1.82,0,3.66.03,5.48.1,8.46.3,16.95,1.29,25.23,2.95,30.62,6.14,58.41,21.22,80.36,43.62,20.81,21.24,35.03,47.77,41.1,76.73,2.7,12.87,3.77,26.06,3.17,39.22-1.8,39.4-18.31,76.32-46.5,103.94-28.56,27.99-66.3,43.76-106.26,44.41-.85.01-1.7.02-2.56.02Z" style="fill:#fff;"/><path d="m417.29,21.68c1.7,0,3.42.03,5.11.09,7.89.28,15.81,1.2,23.54,2.75,28.55,5.72,54.45,19.79,74.92,40.68,19.41,19.81,32.66,44.55,38.33,71.54,2.52,12,3.51,24.31,2.95,36.58-1.68,36.74-17.08,71.16-43.36,96.92-26.63,26.1-61.82,40.8-99.08,41.41-.8.01-1.59.02-2.39.02-9.46,0-18.95-.93-28.21-2.75-28.72-5.66-54.78-19.76-75.37-40.76-21.44-21.88-35.2-49.4-39.78-79.58-1.47-9.65-1.96-19.5-1.47-29.26,1.84-36.47,17.23-70.64,43.33-96.21,27.27-26.72,63.3-41.43,101.47-41.43m0-21c-41.92,0-83.86,15.78-116.17,47.43-31.01,30.39-47.58,69.96-49.61,110.15-.56,11.17,0,22.39,1.68,33.47,5.05,33.24,20.21,65.27,45.54,91.12,24.34,24.84,54.58,40.41,86.3,46.67,10.64,2.1,21.46,3.15,32.27,3.15.91,0,1.82,0,2.73-.02,41-.67,81.83-16.44,113.43-47.41,31.22-30.59,47.8-70.49,49.64-110.96.64-14-.49-28.07-3.38-41.85-6.28-29.92-20.89-58.47-43.88-81.92-24.21-24.71-54.25-40.25-85.8-46.57-8.89-1.78-17.9-2.83-26.93-3.15-1.95-.07-3.9-.1-5.85-.1h0Z"/><path d="m416.22,21h0c3.64,0,7.01.14,10.03.36.02,10.35-2.19,25.29-8.58,43.19-8.76,24.54-22.4,46.68-38.39,62.35-23.93,23.45-59.69,39.03-106.47,46.42-2.46-25.3,1.16-69.2,43.01-110.21,35.52-34.8,74.2-42.11,100.4-42.11m0-21c-29.71,0-74.34,8.17-115.1,48.11-62.28,61.03-50.52,128.78-45.77,147.21.19.75.87,1.27,1.63,1.27.06,0,.12,0,.18,0,49.81-5.39,101.42-19.98,136.82-54.67,39.33-38.54,59.36-103.67,51.69-135.7-.48-1.99-2.57-3.88-4.59-4.22-5.93-.99-14.49-1.99-24.86-1.99h0Z"/><path d="m393.38,24.1c-6.41,29.85-16.85,54.08-39.56,76.33-24.39,23.9-50.99,37.64-79.22,40.96,1.06-6.49,3.59-16.09,8.7-28.15,8.4-19.83,20.25-38.1,32.53-50.13,24.84-24.34,57.34-35.51,77.55-39.01m12.56-22.27c-22.1,0-70.03,12.21-104.82,46.29-38.81,38.03-62.2,115.07-38.8,115.07.04,0,.07,0,.11,0,39.88-.41,75.39-17.68,106.08-47.75,32.47-31.81,43.08-67.75,49.46-109.42.41-2.64-4.18-4.18-12.03-4.18h0Z"/><path d="m560.55,160.14c.59,0,1.18,0,1.76.02,1.36,25.21-3.35,69.77-44,109.59-15.76,15.45-33.16,26.76-51.7,33.62-14.29,5.29-29.28,7.97-44.56,7.97-5.45,0-10.43-.34-14.8-.85,8.34-46.6,24.65-82.03,48.57-105.48,29.74-29.14,76.16-44.87,104.73-44.87m0-21c-34.53,0-86.28,18.39-119.43,50.87-35.4,34.69-51.04,85.99-57.44,135.68-.11.83.41,1.61,1.22,1.83,6.7,1.87,19.97,4.81,37.15,4.81,29.82,0,71.44-8.86,110.95-47.58,54.99-53.89,52.31-116,48.96-138.99-.3-2.03-2.14-4.15-4.13-4.67-5.01-1.31-10.85-1.95-17.29-1.95h0Z"/><path d="m558.92,193c-1.13,5.87-2.99,13.06-5.9,21.17-5.45,15.18-15.89,37.14-34.72,55.59-11.05,10.83-27.01,21.14-44.92,29.04-14.26,6.28-26.12,9.45-34.18,10.58,3.9-28.15,18.17-54.46,42.57-78.36,22.72-22.26,47.16-32.21,77.15-38.01m18.83-24.24c-.09,0-.18,0-.28.02-41.79,5.54-77.94,15.41-110.41,47.23-30.69,30.07-48.68,65.23-49.9,105.09-.21,6.73,5.99,9.76,15.86,9.76,24.65,0,72.21-18.9,99.97-46.11,46.69-45.75,54.45-115.99,44.75-115.99h0Z"/><path d="m186.6,404.21c-37.21,0-72.78-11.46-102.86-33.14-9.61-6.93-18.57-14.87-26.61-23.59-30.07-32.6-46.63-74.99-46.63-119.37,0-48.7,19.44-94.02,54.73-127.6,6.94-6.61,14.47-12.69,22.39-18.07,29.24-19.91,63.46-30.43,98.98-30.43,33.68,0,66.41,9.53,94.65,27.57,12.55,8.01,24.06,17.61,34.23,28.52,30.45,32.69,47.22,75.31,47.22,120.01s-17.15,88.31-48.3,121.15c-8.57,9.04-18.11,17.18-28.37,24.21-29.34,20.11-63.72,30.74-99.44,30.74Z" style="fill:#fff;"/><path d="m186.6,62.51c31.67,0,62.45,8.96,89,25.92,11.8,7.54,22.64,16.57,32.2,26.83,28.63,30.74,44.4,70.81,44.4,112.85s-16.13,83.04-45.42,113.93c-8.06,8.5-17.04,16.16-26.69,22.78-27.58,18.91-59.91,28.9-93.5,28.9s-68.44-10.78-96.72-31.16c-9.04-6.52-17.47-13.98-25.04-22.19-28.28-30.65-43.85-70.52-43.85-112.25,0-23.09,4.65-45.43,13.84-66.38,8.87-20.26,21.54-38.29,37.64-53.61,6.53-6.21,13.62-11.93,21.06-17,27.49-18.72,59.67-28.61,93.07-28.61m0-21c-38.89,0-75,11.9-104.89,32.25-8.42,5.74-16.35,12.14-23.71,19.15C22.27,126.9,0,174.9,0,228.11,0,276.92,18.74,321.35,49.41,354.6c8.52,9.24,17.97,17.62,28.19,24.98,30.66,22.1,68.31,35.13,109,35.13s75.39-12.02,105.37-32.58c10.91-7.48,20.98-16.08,30.05-25.65,31.72-33.45,51.18-78.64,51.18-128.38s-18.99-93.84-50.04-127.16c-10.74-11.53-22.92-21.7-36.26-30.22-28.97-18.5-63.38-29.22-100.3-29.22h0Z"/><path d="m77.06,103.05c3.47,3.17,7.08,7.09,10.63,11.56,7.01,8.85,13.77,19.81,19.56,31.71,12.98,26.69,20.12,55.46,20.12,81.02,0,38.86-16.33,81.1-48.57,125.75-22.65-17.54-57.79-55.9-57.79-124.98s34.44-106.64,56.06-125.06m-.11-24.76c-1.41,0-2.84.39-3.87,1.15C51.98,94.84,0,141.56,0,228.11c0,98.02,63.66,141.88,82.18,152.57.3.17.62.25.95.25.56,0,1.11-.25,1.48-.72,34.86-44.24,63.75-97.15,63.75-152.87,0-61.9-36.54-129.23-68.29-148.27-.88-.53-2-.78-3.13-.78h0Z"/><path d="m53.35,130.58c9.06,13.39,15.63,25.17,20.59,36.79,8.16,19.1,12.12,38.59,12.12,59.6,0,40.34-10.78,73.94-32.07,100.07-4.65-5.72-11.22-15.98-17.79-31.54-9.66-22.89-15.21-47.45-15.21-67.39,0-30.38,9.71-56.63,17.85-73.3,5.04-10.33,10.2-18.41,14.51-24.23m2.84-30.32C44.67,100.26,0,158.85,0,228.11,0,282.98,35.06,352.6,55.53,352.6c2.36,0,4.52-.92,6.41-2.9,31.04-32.34,45.12-74.44,45.12-122.74,0-51.1-20.51-87.89-48.94-125.8-.46-.61-1.11-.9-1.93-.9h0Z"/><path d="m295.38,103.05c21.62,18.42,56.06,58.27,56.06,125.06s-35.14,107.44-57.79,124.98c-32.25-44.65-48.57-86.89-48.57-125.75,0-25.56,7.15-54.33,20.12-81.02,10.16-20.9,21.24-35.12,30.18-43.27m.11-24.75c-1.13,0-2.25.25-3.13.78-31.75,19.04-68.29,86.36-68.29,148.27,0,55.71,28.89,108.63,63.75,152.87.37.47.92.72,1.48.72.32,0,.65-.08.95-.25,18.52-10.69,82.18-54.55,82.18-152.57,0-86.55-51.98-133.27-73.08-148.67-1.03-.75-2.46-1.15-3.87-1.15h0Z"/><path d="m319.08,130.58c4.31,5.82,9.46,13.9,14.51,24.23,8.14,16.67,17.85,42.92,17.85,73.3,0,19.94-5.54,44.5-15.21,67.39-6.57,15.56-13.13,25.82-17.79,31.54-21.29-26.13-32.07-59.73-32.07-100.07,0-21.01,3.97-40.5,12.12-59.6,4.97-11.62,11.53-23.4,20.59-36.79m-2.84-30.32c-.82,0-1.47.3-1.93.9-28.43,37.91-48.94,74.7-48.94,125.8,0,48.3,14.08,90.41,45.12,122.74,1.89,1.97,4.06,2.9,6.41,2.9,20.47,0,55.53-69.63,55.53-124.49,0-69.26-44.67-127.85-56.19-127.85h0Z"/><circle cx="383.5" cy="415.07" r="46" style="fill:none; stroke:#000; stroke-miterlimit:10; stroke-width:20px;"/></svg>