<svg id="Line" enable-background="new 0 0 32 32" height="512" viewBox="0 0 32 32" width="512" xmlns="http://www.w3.org/2000/svg"><path id="XMLID_52_" d="m31 27c0 .552-.448 1-1 1-1.278 0-2.11.416-3.072.898-1.032.517-2.201 1.102-3.928 1.102-1.736 0-2.91-.587-3.946-1.105-.96-.48-1.789-.895-3.054-.895s-2.094.415-3.054.895c-1.036.518-2.21 1.105-3.946 1.105-1.727 0-2.896-.585-3.928-1.102-.962-.482-1.794-.898-3.072-.898-.552 0-1-.448-1-1s.448-1 1-1c1.751 0 2.929.59 3.968 1.11.954.477 1.778.89 3.032.89 1.264 0 2.092-.415 3.052-.894 1.036-.519 2.211-1.106 3.948-1.106s2.912.587 3.948 1.106c.96.479 1.788.894 3.052.894 1.254 0 2.078-.413 3.032-.89 1.039-.52 2.217-1.11 3.968-1.11.552 0 1 .448 1 1z"/><path id="XMLID_53_" d="m31 22c0 .552-.448 1-1 1-1.278 0-2.11.416-3.072.898-1.032.517-2.201 1.102-3.928 1.102-1.736 0-2.91-.587-3.946-1.105-.96-.48-1.789-.895-3.054-.895s-2.094.415-3.054.895c-1.036.518-2.21 1.105-3.946 1.105-1.727 0-2.896-.585-3.928-1.102-.962-.482-1.794-.898-3.072-.898-.552 0-1-.448-1-1s.448-1 1-1c1.751 0 2.929.59 3.968 1.11.954.477 1.778.89 3.032.89 1.264 0 2.092-.415 3.052-.894 1.036-.519 2.211-1.106 3.948-1.106s2.912.587 3.948 1.106c.96.479 1.788.894 3.052.894 1.254 0 2.078-.413 3.032-.89 1.039-.52 2.217-1.11 3.968-1.11.552 0 1 .448 1 1z"/><path id="XMLID_54_" d="m1 17c0-.552.448-1 1-1 3.588 0 4.94-2.535 6.651-5.745 1.961-3.678 4.401-8.255 11.349-8.255 3.42 0 6 2.149 6 5 0 2.282-1.82 4-3 4-.552 0-1-.448-1-1 0-.284-.065-.686-.628-.896-.748-.278-1.804-.026-2.303.55-1.159 1.339-1.385 3.551-.549 5.379.858 1.878 2.628 2.956 4.856 2.956 1.087 0 1.851-.397 2.735-.857 1.019-.53 2.176-1.132 3.889-1.132.552 0 1 .448 1 1s-.448 1-1 1c-1.225 0-2.032.42-2.967.906-.976.508-2.082 1.083-3.658 1.083-3.044 0-5.477-1.503-6.675-4.125-1.168-2.556-.824-5.578.856-7.519 1.044-1.205 2.986-1.684 4.514-1.115.641.239 1.145.642 1.477 1.16.244-.339.453-.808.453-1.39 0-1.71-1.72-3-4-3-5.748 0-7.611 3.495-9.584 7.196-1.783 3.345-3.627 6.804-8.416 6.804-.552 0-1-.448-1-1z"/></svg>