<?xml version="1.0" encoding="UTF-8"?><svg id="Layer_2" xmlns="http://www.w3.org/2000/svg" viewBox="0 0 262.57 262.54"><defs><style>.cls-1{fill:#fff;}</style></defs><g id="Layer_1-2"><path class="cls-1" d="M118.23,262.54c-31.5,0-61.17-12.32-83.54-34.68C12.32,205.49,0,175.82,0,144.32,0,84.7,44.55,34.26,103.64,26.98c.67-.08,1.35-.12,2.02-.12,4.06,0,7.97,1.48,11.02,4.18,3.59,3.18,5.66,7.75,5.66,12.55v96.63h27.83c2.26,0,4.1,1.84,4.1,4.1s-1.84,4.1-4.1,4.1h-24.7l.02,1.09v.13c0,2.48-.95,4.75-2.66,6.46l-3.3,3.3c-1.72,1.72-4,2.66-6.44,2.66s-4.72-.94-6.43-2.66l-3.3-3.3c-1.72-1.72-2.67-4-2.67-6.43s.95-4.72,2.67-6.43l3.3-3.3c1.71-1.71,3.98-2.65,6.41-2.66h1.07V55.18l-1.3.3c-2.48.56-4.81,1.49-6.92,2.76-5.85,3.52-12.54,5.37-19.32,5.37-.24,0-1.08,0-1.08,0-8.64,0-16.9,4.88-21.04,12.43-3.36,6.13-8.38,11.15-14.52,14.52-7.7,4.22-12.58,12.63-12.42,21.41.12,7.06-1.74,13.98-5.37,20.03-4.5,7.49-4.5,17.17,0,24.66,3.63,6.05,5.49,12.98,5.37,20.03-.15,8.78,4.73,17.19,12.42,21.41,6.13,3.37,11.15,8.39,14.52,14.52,4.14,7.55,12.4,12.43,21.05,12.43,0,0,.83,0,1.06,0,6.79,0,13.48,1.86,19.34,5.38,3.68,2.21,7.94,3.38,12.33,3.38,4.39,0,8.65-1.17,12.33-3.38,5.86-3.52,12.54-5.38,19.32-5.38.24,0,1.09,0,1.09,0,8.63,0,16.89-4.88,21.03-12.43,3.37-6.13,8.39-11.15,14.52-14.52,7.7-4.22,12.58-12.63,12.42-21.41-.12-7.06,1.74-13.98,5.37-20.03,1.27-2.11,2.2-4.44,2.76-6.92l.3-1.3h-16.88c-2.26,0-4.1-1.84-4.1-4.1s1.84-4.1,4.1-4.1h28.48c4.8,0,9.37,2.06,12.55,5.66,3.16,3.57,4.64,8.32,4.06,13.04-7.27,59.08-57.72,103.64-117.33,103.64ZM105.69,35.06c-.35,0-.71.02-1.05.06C49.66,41.89,8.2,88.84,8.2,144.32c0,29.31,11.46,56.92,32.28,77.74s48.43,32.28,77.74,32.28c55.48,0,102.42-41.46,109.19-96.44.3-2.42-.43-4.76-2.06-6.6-1.62-1.83-3.96-2.89-6.4-2.89h-3.32l-.14.91c-.64,4.13-2.04,8.02-4.15,11.55-2.84,4.73-4.29,10.15-4.2,15.67.2,11.79-6.35,23.07-16.68,28.74-4.76,2.61-8.66,6.51-11.27,11.27-5.56,10.14-16.63,16.69-28.21,16.69,0,0-.88,0-1.06,0-5.33,0-10.56,1.45-15.14,4.2-4.93,2.96-10.66,4.53-16.55,4.53s-11.62-1.56-16.55-4.53c-4.58-2.75-9.82-4.2-15.14-4.2-.17,0-1.07,0-1.07,0-11.56,0-22.63-6.55-28.19-16.69-2.61-4.76-6.51-8.66-11.27-11.27-10.33-5.67-16.88-16.95-16.68-28.74.09-5.52-1.36-10.94-4.2-15.67-6.04-10.06-6.04-23.05,0-33.11,2.84-4.73,4.29-10.15,4.2-15.67-.2-11.79,6.35-23.07,16.68-28.74,4.76-2.61,8.66-6.51,11.27-11.27,5.56-10.14,16.66-16.69,28.28-16.69,0,0,.86,0,1.05,0,5.28,0,10.5-1.45,15.08-4.21,3.53-2.12,7.41-3.51,11.55-4.15l.9-.14v-3.32c0-2.45-1.05-4.78-2.89-6.4-1.55-1.37-3.52-2.12-5.55-2.12ZM113.09,154.23l4.57-4.57-4.57-4.57-4.57,4.57,4.57,4.57Z"/><path class="cls-1" d="M118.23,261.54c-31.24,0-60.66-12.21-82.83-34.39C13.21,204.97,1,175.56,1,144.32,1,85.2,45.18,35.19,103.76,27.98c.63-.08,1.27-.12,1.9-.12,3.81,0,7.49,1.39,10.35,3.93,3.38,2.99,5.32,7.29,5.32,11.8v97.63h28.83c1.71,0,3.1,1.39,3.1,3.1s-1.39,3.1-3.1,3.1h-25.72l.04,2.1c0,.06,0,.12,0,.18-.01,2.15-.85,4.17-2.37,5.69l-3.3,3.3c-1.53,1.53-3.56,2.37-5.73,2.37s-4.2-.84-5.73-2.37l-3.3-3.3c-1.53-1.53-2.37-3.56-2.37-5.73s.84-4.2,2.37-5.73l3.3-3.3c1.52-1.52,3.55-2.36,5.7-2.37h2.06V53.93l-2.53.57c-2.59.59-5.02,1.55-7.22,2.88-5.7,3.42-12.2,5.23-18.81,5.23-.23,0-.46,0-.69,0-.13,0-.26,0-.39,0-9,0-17.6,5.08-21.92,12.95-3.27,5.97-8.16,10.85-14.12,14.12-8.02,4.4-13.1,13.15-12.94,22.3.12,6.87-1.69,13.61-5.23,19.5-4.68,7.8-4.68,17.89,0,25.69,3.54,5.89,5.34,12.63,5.23,19.5-.16,9.15,4.92,17.9,12.94,22.3,5.97,3.27,10.85,8.16,14.12,14.12,4.32,7.87,12.92,12.95,21.92,12.95.13,0,.25,0,.38,0,.23,0,.46,0,.68,0,6.61,0,13.12,1.81,18.82,5.23,3.83,2.3,8.27,3.52,12.84,3.52,4.57,0,9.01-1.22,12.84-3.52,5.7-3.42,12.2-5.23,18.81-5.23.23,0,.46,0,.69,0,.14,0,.27,0,.4,0,8.99,0,17.59-5.08,21.91-12.95,3.27-5.97,8.16-10.85,14.12-14.12,8.02-4.4,13.1-13.15,12.94-22.3-.12-6.87,1.69-13.61,5.23-19.5,1.32-2.2,2.29-4.63,2.88-7.22l.57-2.52h-18.13c-1.71,0-3.1-1.39-3.1-3.1s1.39-3.1,3.1-3.1h28.48c4.51,0,8.81,1.94,11.8,5.32,2.97,3.35,4.36,7.82,3.81,12.25-7.21,58.58-57.23,102.76-116.34,102.76ZM105.69,34.06c-.39,0-.78.02-1.17.07C49.04,40.96,7.2,88.33,7.2,144.32c0,29.58,11.57,57.44,32.58,78.45s48.87,32.58,78.45,32.58c55.99,0,103.35-41.84,110.18-97.31.33-2.71-.48-5.33-2.3-7.38-1.81-2.05-4.42-3.22-7.15-3.22h-4.18l-.27,1.75c-.62,4.01-1.97,7.77-4.02,11.18-2.94,4.89-4.44,10.49-4.34,16.2.2,11.42-6.15,22.35-16.16,27.85-4.93,2.7-8.96,6.74-11.67,11.67-5.39,9.82-16.12,16.17-27.34,16.17-.17,0-.34,0-.51,0-.18,0-.36,0-.54,0-5.51,0-10.92,1.5-15.66,4.35-4.78,2.87-10.32,4.38-16.04,4.38s-11.26-1.52-16.04-4.38c-4.74-2.84-10.15-4.35-15.66-4.35-.18,0-.36,0-.55,0-.18,0-.35,0-.53,0-11.21,0-21.93-6.35-27.32-16.17-2.7-4.93-6.74-8.96-11.67-11.67-10.01-5.49-16.36-16.42-16.16-27.85.1-5.71-1.4-11.31-4.34-16.2-5.85-9.74-5.85-22.33,0-32.08,2.94-4.89,4.44-10.5,4.34-16.2-.2-11.42,6.15-22.35,16.16-27.85,4.93-2.7,8.96-6.74,11.67-11.67,5.39-9.82,16.14-16.17,27.4-16.17.15,0,.3,0,.45,0,.19,0,.4,0,.6,0,5.47,0,10.86-1.5,15.6-4.35,3.41-2.05,7.18-3.4,11.18-4.02l1.75-.27v-4.18c0-2.73-1.17-5.34-3.22-7.15-1.73-1.53-3.94-2.37-6.21-2.37ZM107.1,149.67l5.98,5.98,5.98-5.98-5.98-5.98-5.98,5.98Z"/><path class="cls-1" d="M171.35,148.42c-1.08,0-2.14-.44-2.9-1.2s-1.2-1.82-1.2-2.9.44-2.14,1.2-2.9c.76-.76,1.82-1.2,2.9-1.2s2.14.44,2.9,1.2,1.2,1.82,1.2,2.9-.44,2.14-1.2,2.9c-.76.76-1.82,1.2-2.9,1.2h0Z"/><path class="cls-1" d="M171.35,147.42c-.82,0-1.61-.33-2.19-.91-.58-.58-.91-1.38-.91-2.19s.33-1.62.91-2.19c.58-.58,1.38-.91,2.19-.91s1.62.33,2.19.91.91,1.38.91,2.19-.33,1.62-.91,2.19c-.58.58-1.38.91-2.19.91Z"/><path class="cls-1" d="M152.87,199.14c-5.36,0-10.4-2.09-14.19-5.88-7.82-7.83-7.82-20.56,0-28.38,3.79-3.79,8.83-5.88,14.19-5.88s10.4,2.09,14.19,5.88c7.82,7.83,7.82,20.56,0,28.38-3.79,3.79-8.83,5.88-14.19,5.88ZM152.87,167.21c-3.17,0-6.15,1.23-8.39,3.47-2.24,2.24-3.47,5.22-3.47,8.39s1.23,6.15,3.47,8.39c2.24,2.24,5.22,3.48,8.39,3.48s6.15-1.23,8.39-3.48c2.24-2.24,3.47-5.22,3.47-8.39s-1.23-6.15-3.47-8.39c-2.24-2.24-5.22-3.47-8.39-3.47Z"/><path class="cls-1" d="M152.87,198.14c-5.09,0-9.88-1.98-13.48-5.59-7.43-7.44-7.43-19.53,0-26.97,3.6-3.6,8.39-5.59,13.48-5.59s9.88,1.98,13.48,5.59c7.43,7.44,7.43,19.53,0,26.97-3.6,3.6-8.39,5.59-13.48,5.59ZM152.87,166.21c-3.44,0-6.67,1.34-9.1,3.77-2.43,2.43-3.76,5.66-3.76,9.1s1.34,6.67,3.76,9.1c2.43,2.43,5.66,3.77,9.1,3.77s6.67-1.34,9.1-3.77c2.43-2.43,3.76-5.66,3.76-9.1s-1.34-6.67-3.76-9.1c-2.43-2.43-5.66-3.77-9.1-3.77Z"/><path class="cls-1" d="M78.62,123.95c-5.37,0-10.41-2.08-14.19-5.87-3.79-3.79-5.88-8.83-5.88-14.19s2.09-10.4,5.88-14.19,8.83-5.88,14.19-5.88,10.4,2.09,14.19,5.88c3.79,3.79,5.88,8.83,5.88,14.19s-2.09,10.4-5.88,14.19-8.82,5.87-14.19,5.87ZM78.62,92.03c-3.17,0-6.15,1.23-8.39,3.47-2.24,2.24-3.47,5.22-3.47,8.39s1.23,6.15,3.47,8.39c2.24,2.24,5.22,3.47,8.39,3.47s6.15-1.23,8.39-3.47,3.48-5.22,3.48-8.39-1.23-6.15-3.47-8.39c-2.24-2.24-5.22-3.48-8.39-3.48Z"/><path class="cls-1" d="M78.62,122.95c-5.1,0-9.89-1.98-13.48-5.57-3.6-3.6-5.58-8.39-5.58-13.48s1.98-9.88,5.58-13.48c3.6-3.6,8.39-5.59,13.48-5.59s9.88,1.98,13.48,5.59c3.6,3.6,5.58,8.39,5.58,13.48s-1.98,9.88-5.58,13.48c-3.6,3.59-8.38,5.57-13.48,5.57ZM78.62,91.03c-3.44,0-6.67,1.34-9.1,3.77-2.43,2.43-3.77,5.66-3.77,9.1s1.34,6.67,3.77,9.1c2.43,2.43,5.66,3.76,9.1,3.76s6.67-1.34,9.1-3.76c2.43-2.43,3.77-5.66,3.77-9.1s-1.34-6.67-3.77-9.1c-2.43-2.43-5.66-3.77-9.1-3.77Z"/><path class="cls-1" d="M188.18,172.08c-1.08,0-2.14-.44-2.9-1.2-.76-.76-1.2-1.82-1.2-2.9s.44-2.14,1.2-2.9c.76-.76,1.82-1.2,2.9-1.2s2.13.44,2.9,1.2c.76.76,1.2,1.82,1.2,2.9s-.44,2.14-1.2,2.9-1.82,1.2-2.9,1.2Z"/><path class="cls-1" d="M188.18,171.08c-.82,0-1.62-.33-2.19-.91s-.91-1.38-.91-2.19.33-1.62.91-2.19c.58-.58,1.38-.91,2.19-.91s1.62.33,2.19.91c.58.58.91,1.38.91,2.19s-.33,1.62-.91,2.19c-.58.58-1.38.91-2.19.91Z"/><path class="cls-1" d="M101.72,79.3c-1.08,0-2.14-.44-2.9-1.2-.76-.76-1.2-1.82-1.2-2.9s.44-2.14,1.2-2.9,1.82-1.2,2.9-1.2,2.14.44,2.9,1.2c.77.77,1.2,1.83,1.2,2.91s-.44,2.14-1.2,2.9c-.76.76-1.82,1.2-2.9,1.2Z"/><path class="cls-1" d="M101.72,78.3c-.82,0-1.62-.33-2.19-.91-.58-.58-.91-1.38-.91-2.19s.33-1.62.91-2.2c.58-.57,1.37-.9,2.19-.9s1.62.33,2.19.9c.58.58.91,1.38.91,2.2s-.33,1.62-.91,2.19c-.58.58-1.38.91-2.19.91Z"/><path class="cls-1" d="M103.45,128.21c-1.08,0-2.14-.44-2.9-1.2-.76-.76-1.2-1.82-1.2-2.9s.44-2.14,1.2-2.9c.76-.76,1.82-1.2,2.9-1.2s2.13.44,2.9,1.2c.76.76,1.2,1.82,1.2,2.9s-.44,2.14-1.2,2.9c-.76.76-1.82,1.2-2.9,1.2Z"/><path class="cls-1" d="M103.45,127.21c-.82,0-1.62-.33-2.19-.91-.58-.58-.91-1.38-.91-2.19s.33-1.62.91-2.19c.58-.58,1.38-.91,2.19-.91s1.61.33,2.19.91c.58.58.91,1.37.91,2.19s-.33,1.62-.91,2.19c-.58.58-1.38.91-2.2.91Z"/><path class="cls-1" d="M118.23,176.71c-1.08,0-2.14-.44-2.9-1.2-.76-.76-1.2-1.82-1.2-2.9s.44-2.14,1.2-2.9c.76-.76,1.82-1.2,2.9-1.2s2.14.44,2.9,1.2c.76.76,1.2,1.82,1.2,2.9s-.44,2.13-1.2,2.9c-.76.76-1.82,1.2-2.9,1.2Z"/><path class="cls-1" d="M118.23,175.71c-.82,0-1.62-.33-2.19-.91-.58-.58-.91-1.38-.91-2.2s.33-1.61.91-2.19c.58-.58,1.38-.91,2.19-.91s1.62.33,2.19.91c.58.58.91,1.38.91,2.19s-.33,1.62-.91,2.19c-.58.58-1.37.91-2.19.91Z"/><path class="cls-1" d="M46.19,125.69c-1.08,0-2.13-.44-2.9-1.2-.77-.77-1.2-1.82-1.2-2.9s.44-2.14,1.2-2.9,1.82-1.2,2.9-1.2,2.14.44,2.9,1.2c.77.76,1.21,1.82,1.21,2.9s-.44,2.14-1.21,2.9c-.76.76-1.82,1.21-2.9,1.21Z"/><path class="cls-1" d="M46.19,124.69c-.82,0-1.62-.33-2.19-.91-.58-.58-.91-1.38-.91-2.19s.33-1.62.91-2.19c.58-.58,1.38-.91,2.19-.91s1.62.33,2.19.91c.58.58.91,1.38.91,2.19s-.33,1.61-.91,2.19c-.58.58-1.38.91-2.2.91Z"/><path class="cls-1" d="M90.24,143.32c-1.08,0-2.14-.44-2.9-1.2s-1.2-1.82-1.2-2.9.44-2.13,1.2-2.9c.76-.76,1.82-1.2,2.9-1.2s2.14.44,2.9,1.2c.76.76,1.2,1.82,1.2,2.9s-.44,2.13-1.2,2.9c-.76.76-1.82,1.2-2.9,1.2Z"/><path class="cls-1" d="M90.24,142.32c-.82,0-1.61-.33-2.19-.91-.58-.58-.91-1.38-.91-2.19s.33-1.62.91-2.19c.58-.58,1.38-.91,2.19-.91s1.62.33,2.19.91c.58.58.91,1.38.91,2.19s-.33,1.61-.91,2.19c-.58.58-1.38.91-2.19.91Z"/><path class="cls-1" d="M53.02,157.02c-2.76,0-5.48-.5-8.09-1.49l-.19-.07c-1.82-.69-2.92-2.58-2.6-4.5l.03-.21c1.12-6.83,5.2-12.71,11.21-16.13,3.45-1.96,7.34-3,11.28-3,2.85,0,5.65.53,8.32,1.58,1.8.7,2.85,2.53,2.56,4.44-1.04,6.84-5.06,12.77-11.03,16.26-3.5,2.05-7.48,3.13-11.49,3.13ZM64.69,139.83c-2.53,0-5.04.66-7.24,1.92-2.29,1.3-4.18,3.2-5.47,5.47l-.91,1.6h1.84c2.65-.01,5.23-.71,7.46-2.01,2.22-1.3,4.07-3.16,5.33-5.39l.9-1.58h-1.91Z"/><path class="cls-1" d="M53.02,156.02c-2.64,0-5.24-.48-7.73-1.42l-.19-.07c-1.38-.52-2.21-1.95-1.97-3.4l.03-.21c1.07-6.53,4.97-12.15,10.72-15.43,3.3-1.88,7.02-2.87,10.78-2.87,2.72,0,5.4.51,7.96,1.51,1.36.53,2.16,1.91,1.94,3.35-.99,6.54-4.84,12.21-10.55,15.55-3.35,1.96-7.15,2.99-10.99,2.99ZM64.7,138.83c-2.7,0-5.38.71-7.74,2.05-2.45,1.4-4.47,3.42-5.84,5.84l-1.76,3.1h3.56c2.83-.02,5.58-.76,7.96-2.15,2.38-1.39,4.34-3.38,5.69-5.76l1.74-3.07-3.62-.02Z"/><path class="cls-1" d="M131.11,223.05c-5.12,0-9.97-1.68-14.03-4.86-5.45-4.27-8.63-10.68-8.74-17.6v-.21c-.03-1.94,1.32-3.65,3.22-4.07l.2-.04c1.62-.35,3.27-.53,4.91-.53,5.14,0,10.19,1.78,14.23,5.02,5.4,4.33,8.51,10.78,8.54,17.69,0,1.93-1.3,3.58-3.18,4.02-1.69.39-3.43.59-5.15.59ZM117.53,205.53c.94,2.44,2.54,4.58,4.61,6.21,2.03,1.59,4.44,2.62,6.97,2.97l1.8.25-.66-1.7c-.92-2.38-2.47-4.49-4.48-6.11-2.05-1.65-4.51-2.71-7.1-3.07l-1.8-.25.66,1.7Z"/><path class="cls-1" d="M131.11,222.05c-4.89,0-9.53-1.61-13.41-4.65-5.21-4.08-8.25-10.21-8.36-16.83v-.21c-.02-1.47,1-2.76,2.43-3.07l.2-.04c1.54-.34,3.12-.51,4.69-.51,4.91,0,9.74,1.7,13.6,4.8,5.16,4.14,8.14,10.3,8.17,16.92,0,1.46-.98,2.71-2.41,3.04-1.62.37-3.28.56-4.93.56ZM116.6,205.89c1.01,2.6,2.71,4.9,4.93,6.63,2.17,1.7,4.74,2.8,7.45,3.17l3.49.49-1.27-3.28c-.99-2.55-2.64-4.8-4.79-6.52-2.19-1.76-4.82-2.89-7.58-3.28l-3.49-.49,1.27,3.28Z"/><path class="cls-1" d="M74.51,202.91c-2.47,0-4.83-.96-6.65-2.7-4.74-4.52-7.29-10.87-7-17.42.51-11.6,10.01-21.1,21.61-21.61.34-.02.68-.02,1.02-.02,6.17,0,12.15,2.56,16.41,7.03,2.44,2.57,3.29,6.12,2.27,9.51-.65,2.16-2.04,4.04-3.92,5.3l-.74.5.35.82c1.48,3.41.74,7.3-1.88,9.92l-2.07,2.07c-1.69,1.69-3.94,2.62-6.34,2.62-1.24,0-2.45-.25-3.58-.74l-.82-.35-.5.74c-1.26,1.88-3.14,3.27-5.3,3.92-.94.28-1.91.43-2.86.43ZM83.47,169.36c-.22,0-.43,0-.65.01-7.39.33-13.45,6.38-13.77,13.78-.19,4.19,1.44,8.24,4.47,11.13.3.28.64.42,1.02.42.15,0,.31-.02.46-.07.57-.17.96-.59,1.09-1.17.35-1.56.88-3.09,1.57-4.56.57-1.21,1.69-2.07,3.01-2.3.23-.04.47-.06.71-.06,1.08,0,2.14.44,2.9,1.2l3.29,3.29,3.15-3.15-3.29-3.29c-.94-.94-1.37-2.29-1.14-3.61.23-1.32,1.09-2.44,2.3-3.01,1.47-.69,3-1.21,4.56-1.57.58-.13,1-.52,1.17-1.08.17-.55.04-1.08-.36-1.49-2.71-2.85-6.53-4.48-10.47-4.48Z"/><path class="cls-1" d="M74.51,201.91c-2.21,0-4.33-.86-5.96-2.42-4.53-4.32-6.97-10.39-6.69-16.66.49-11.09,9.56-20.16,20.65-20.66.33-.01.65-.02.97-.02,5.9,0,11.62,2.45,15.68,6.72,2.19,2.3,2.95,5.49,2.04,8.53-.58,1.94-1.83,3.63-3.52,4.76l-1.43.96.69,1.58c1.31,3.03.66,6.49-1.67,8.81l-2.07,2.07c-1.5,1.5-3.5,2.33-5.63,2.33h0c-1.1,0-2.17-.22-3.18-.66l-1.58-.69-.96,1.43c-1.13,1.69-2.82,2.94-4.76,3.52-.85.25-1.71.38-2.57.38ZM83.47,168.36c-.23,0-.46,0-.69.02-7.91.35-14.38,6.82-14.73,14.73-.2,4.47,1.54,8.81,4.78,11.89.62.58,1.27.7,1.71.7.25,0,.5-.04.75-.11.91-.28,1.56-.97,1.77-1.9.34-1.49.84-2.96,1.5-4.36.43-.92,1.28-1.57,2.27-1.74.18-.03.36-.05.54-.05.82,0,1.62.33,2.19.91l4,4,4.56-4.56-4-4c-.71-.71-1.04-1.74-.86-2.73.18-1,.83-1.85,1.74-2.27,1.4-.66,2.87-1.16,4.35-1.5.93-.21,1.63-.86,1.9-1.77.27-.9.05-1.8-.59-2.47-2.9-3.04-6.98-4.79-11.19-4.79Z"/><path class="cls-1" d="M208.06,114.42c-1.08,0-2.14-.44-2.9-1.2-.76-.76-1.2-1.82-1.2-2.9s.44-2.13,1.2-2.9c.76-.76,1.82-1.2,2.9-1.2s2.14.44,2.9,1.2c.76.76,1.2,1.82,1.2,2.9s-.44,2.14-1.2,2.9-1.82,1.2-2.9,1.2Z"/><path class="cls-1" d="M208.06,113.42c-.82,0-1.61-.33-2.19-.91-.58-.58-.91-1.38-.91-2.19s.33-1.62.91-2.19c.58-.58,1.38-.91,2.19-.91s1.62.33,2.19.91c.58.58.91,1.38.91,2.19s-.33,1.61-.91,2.19c-.58.58-1.38.91-2.19.91Z"/><path class="cls-1" d="M170.63,58.53c-1.08,0-2.13-.44-2.9-1.2-.77-.77-1.2-1.83-1.2-2.9s.44-2.14,1.2-2.91c.76-.76,1.81-1.2,2.9-1.2s2.14.44,2.9,1.2c.76.77,1.2,1.83,1.2,2.9s-.44,2.13-1.2,2.9c-.77.76-1.82,1.2-2.9,1.2Z"/><path class="cls-1" d="M170.64,57.53c-.82,0-1.62-.33-2.19-.91-.58-.58-.91-1.38-.91-2.19s.33-1.62.91-2.2c.57-.57,1.37-.9,2.19-.9s1.62.33,2.19.9c.58.58.91,1.38.91,2.2s-.33,1.61-.91,2.2c-.57.57-1.37.91-2.19.91Z"/><path class="cls-1" d="M192.61,103.81c-.92,0-1.84-.14-2.74-.41-1.95-.59-3.68-1.82-4.88-3.48-.21-.3-.56-.47-.93-.47h-.21l-.22.08c-.98.38-2.04.58-3.12.58h-.29c-2.2-.08-4.32-1.04-6-2.72l-1.52-1.52c-1.68-1.68-2.64-3.81-2.71-5.99-.04-1.19.16-2.34.58-3.43.19-.49.03-1.04-.4-1.34-1.66-1.2-2.89-2.93-3.48-4.88-.98-3.25-.17-6.66,2.17-9.11,4-4.2,9.63-6.61,15.44-6.61.31,0,.63,0,.95.02,10.91.48,19.84,9.41,20.32,20.32.27,6.16-2.13,12.14-6.59,16.39-1.75,1.67-4.01,2.58-6.37,2.58ZM191.71,95.22c.21.23.55.38.87.38h.11l.42-.08.22-.21c2.74-2.63,4.22-6.31,4.05-10.1-.3-6.71-5.78-12.19-12.49-12.49-.2,0-.39-.01-.59-.01-3.57,0-7.04,1.48-9.5,4.06l-.06.06-.05.07c-.3.45-.23,1.09.16,1.46l.31.29h.29l.11.03c1.42.34,2.81.82,4.12,1.44,1.62.76,2.56,2.48,2.33,4.27-.11.87-.56,1.74-1.27,2.44l-1.93,1.93c-.21.21-.34.51-.34.81s.12.6.34.82l.86.86c.22.22.5.34.81.34s.6-.12.82-.34l2.02-2.02c.76-.76,1.82-1.2,2.9-1.2,1.16,0,2.22.48,3.07,1.39.24.26.46.59.64.97.65,1.38,1.14,2.83,1.48,4.29.03.14.08.27.15.38l.05.08.07.08Z"/><path class="cls-1" d="M192.61,102.81c-.82,0-1.65-.12-2.45-.37-1.74-.53-3.29-1.63-4.36-3.11-.39-.55-1.04-.89-1.74-.89h-.39l-.39.15c-.87.34-1.8.51-2.77.51-.09,0-.18,0-.26,0-1.93-.06-3.82-.93-5.32-2.42l-1.52-1.52c-1.5-1.5-2.36-3.39-2.42-5.32-.03-1.05.14-2.07.51-3.03.36-.91.05-1.95-.74-2.52-1.48-1.07-2.59-2.62-3.11-4.36-.87-2.9-.15-5.94,1.94-8.13,3.81-4,9.18-6.3,14.72-6.3.3,0,.6,0,.9.02,10.4.46,18.9,8.97,19.37,19.37.26,5.88-2.03,11.57-6.28,15.62-1.56,1.49-3.58,2.31-5.68,2.31ZM186.25,89.03c.89,0,1.68.36,2.34,1.07.17.19.33.42.46.71.62,1.32,1.09,2.69,1.41,4.09.05.24.15.47.27.68l.1.17.13.14c.4.44,1,.7,1.61.7h.2l.8-.16.43-.42c2.95-2.83,4.54-6.79,4.35-10.86-.32-7.22-6.23-13.12-13.44-13.44-.21,0-.42-.01-.63-.01-3.85,0-7.57,1.59-10.22,4.37l-.12.13-.1.14c-.57.85-.44,2.03.31,2.74l.6.57h.57c1.36.32,2.67.78,3.93,1.37,1.23.57,1.94,1.88,1.76,3.24-.08.65-.43,1.32-.98,1.86l-1.93,1.93c-.4.4-.63.95-.63,1.52s.23,1.13.64,1.53l.86.86c.41.41.95.63,1.52.63s1.13-.23,1.53-.64l2.02-2.02c.58-.58,1.38-.91,2.19-.91Z"/><path class="cls-1" d="M136.91,129.83c-1.1,0-2.13-.43-2.9-1.2s-1.2-1.81-1.2-2.9V13.84c0-3.86,1.63-7.57,4.48-10.18,2.57-2.36,5.92-3.66,9.42-3.66.4,0,.8.02,1.2.05,21.21,1.83,41.75,9.1,59.41,21,.91.61,1.52,1.54,1.73,2.62.21,1.08-.01,2.17-.63,3.08-.76,1.13-2.04,1.81-3.4,1.81-.82,0-1.61-.24-2.29-.7-16.5-11.13-35.71-17.92-55.53-19.63-.17-.01-.34-.02-.51-.02-1.43,0-2.8.53-3.86,1.5-1.17,1.07-1.82,2.54-1.82,4.14v7.96l.91.13c4.49.66,8.71,2.15,12.53,4.45,4.94,2.96,10.61,4.53,16.41,4.53,0,0,.89,0,1.09,0,12.25,0,23.97,6.94,29.87,17.69,2.82,5.14,7.02,9.34,12.16,12.16,10.96,6.01,17.9,17.97,17.68,30.47-.1,5.95,1.46,11.8,4.53,16.9,2.3,3.83,3.79,8.05,4.45,12.54l.13.91h7.96c1.59,0,3.06-.65,4.13-1.82,1.09-1.19,1.62-2.74,1.48-4.37-1.64-19.01-7.98-37.53-18.33-53.56-.59-.92-.79-2.02-.56-3.09.23-1.07.86-1.99,1.78-2.58.66-.43,1.43-.66,2.22-.66,1.4,0,2.69.7,3.45,1.88,11.07,17.15,17.85,36.96,19.61,57.3.34,3.88-.98,7.76-3.61,10.62-2.61,2.84-6.32,4.48-10.18,4.48l-111.83.06h0ZM162.4,110.53c-1.33,0-2.59.52-3.53,1.46l-9.62,9.62h26.3s-9.61-9.62-9.61-9.62c-.94-.94-2.2-1.46-3.53-1.46ZM162.4,102.33c3.53,0,6.84,1.37,9.33,3.87l15.41,15.41,45.38-.02-.27-1.28c-.59-2.84-1.63-5.52-3.09-7.95-3.86-6.42-5.83-13.78-5.7-21.26.16-9.49-5.11-18.57-13.43-23.13-6.51-3.57-11.84-8.9-15.41-15.41-4.48-8.16-13.39-13.43-22.7-13.43,0,0-.9,0-1.14,0-7.23,0-14.34-1.97-20.56-5.7-2.43-1.46-5.1-2.5-7.94-3.09l-1.29-.27v7.2l.78.22c6.04,1.69,11.12,5.6,14.29,11.03,3.69,6.31,4.32,13.85,1.74,20.68l-.08.21c-.6,1.59-2.14,2.65-3.83,2.65-.22,0-.45-.02-.67-.05l-.23-.04c-3.71-.61-7.28-2.1-10.31-4.31l-1.7-1.24v51.84l12.06-12.06c2.49-2.49,5.81-3.87,9.33-3.87ZM141.03,47.45c-.14,3,.57,5.98,2.07,8.6,1.53,2.68,3.78,4.84,6.5,6.25l1.48.76.08-1.66c.15-3.06-.6-6.09-2.16-8.76-1.53-2.61-3.75-4.72-6.41-6.1l-1.48-.76-.08,1.66Z"/><path class="cls-1" d="M136.91,128.83c-.83,0-1.61-.32-2.19-.91s-.91-1.36-.91-2.19V13.84c0-3.58,1.51-7.02,4.15-9.45,2.39-2.19,5.49-3.4,8.74-3.4.37,0,.75.02,1.12.05,21.04,1.82,41.42,9.02,58.94,20.84.69.46,1.15,1.17,1.31,1.98.16.81,0,1.64-.47,2.33-.58.86-1.54,1.37-2.58,1.37-.62,0-1.21-.18-1.73-.53-16.64-11.22-36.01-18.07-56-19.8-.2-.02-.4-.03-.6-.03-1.68,0-3.3.63-4.54,1.77-1.38,1.27-2.14,3-2.14,4.87v8.82l1.77.26c4.36.64,8.45,2.09,12.16,4.32,5.09,3.06,10.95,4.67,16.93,4.67.17,0,.33,0,.5,0,.2,0,.39,0,.59,0,11.89,0,23.27,6.74,28.99,17.17,2.91,5.3,7.25,9.65,12.56,12.56,10.63,5.83,17.37,17.44,17.16,29.57-.11,6.14,1.51,12.17,4.67,17.43,2.23,3.71,3.68,7.81,4.32,12.17l.26,1.77h8.82c1.87,0,3.6-.77,4.87-2.15,1.28-1.4,1.9-3.22,1.74-5.13-1.66-19.17-8.05-37.85-18.49-54.02-.93-1.44-.51-3.36.92-4.29.5-.32,1.08-.5,1.68-.5,1.06,0,2.04.53,2.61,1.42,10.98,17.01,17.71,36.67,19.45,56.85.31,3.61-.91,7.2-3.35,9.86-2.42,2.64-5.86,4.15-9.44,4.15l-111.83.06h0ZM162.4,109.53c-1.6,0-3.11.62-4.24,1.76l-11.33,11.33,31.13-.02-11.32-11.32c-1.13-1.13-2.64-1.76-4.24-1.76ZM162.4,103.32c3.26,0,6.32,1.27,8.63,3.57l15.7,15.7,47.02-.02-.51-2.49c-.61-2.95-1.69-5.73-3.21-8.26-3.76-6.26-5.68-13.43-5.56-20.73.17-9.86-5.31-19.29-13.95-24.03-6.34-3.48-11.53-8.67-15.01-15.01-4.65-8.47-13.9-13.95-23.58-13.95-.15,0-.3,0-.45,0-.23,0-.46,0-.69,0-7.05,0-13.98-1.92-20.04-5.56-2.53-1.52-5.3-2.6-8.25-3.21l-2.49-.52v9.19l1.51.42c5.79,1.61,10.66,5.37,13.7,10.57,3.54,6.05,4.14,13.27,1.66,19.83l-.08.21c-.45,1.2-1.62,2-2.9,2-.17,0-.34-.01-.5-.04l-.23-.04c-3.56-.58-6.98-2.01-9.88-4.13l-3.29-2.4v56.22l13.76-13.76c2.3-2.3,5.37-3.57,8.63-3.57ZM140.03,47.4c-.15,3.19.61,6.35,2.2,9.15,1.63,2.85,4.02,5.15,6.91,6.64l2.86,1.48.15-3.22c.16-3.26-.64-6.47-2.3-9.31-1.62-2.78-3.98-5.02-6.82-6.48l-2.86-1.48-.15,3.22Z"/><path class="cls-1" d="M223.6,43.95c-1.1,0-2.14-.43-2.91-1.22l-.37-.37c-.77-.78-1.2-1.81-1.2-2.9,0-1.1.43-2.12,1.2-2.9.78-.77,1.81-1.2,2.9-1.2s2.13.43,2.9,1.21l.4.4c1.59,1.61,1.58,4.21-.03,5.8-.77.77-1.8,1.19-2.89,1.19Z"/><path class="cls-1" d="M223.6,42.95c-.83,0-1.62-.33-2.2-.92l-.37-.37c-.59-.59-.91-1.37-.91-2.2,0-.83.32-1.61.91-2.19.59-.58,1.36-.91,2.19-.91s1.61.32,2.2.91l.39.4c1.2,1.21,1.19,3.18-.02,4.38-.59.58-1.36.9-2.18.9Z"/></g></svg>