<?xml version="1.0" encoding="UTF-8"?><svg id="Layer_2" xmlns="http://www.w3.org/2000/svg" viewBox="0 0 371.57 245.87"><defs><style>.cls-1{fill:none;stroke:#fff;stroke-miterlimit:10;stroke-width:12px;}</style></defs><g id="Layer_1-2"><path class="cls-1" d="M210.41,180.57c-1.64,2.45-3.39,4.84-5.22,7.15-.66.84-1.34,1.67-2.04,2.49-.07.09-.14.18-.23.27-.62.74-1.25,1.48-1.9,2.2-.1.12-.2.23-.31.34-.71.79-1.43,1.57-2.16,2.34-.01.02-.04.04-.06.07-.75.78-1.51,1.55-2.27,2.31-.03.04-.07.07-.11.1-.73.73-1.47,1.44-2.22,2.14-.08.08-.16.16-.24.22-.79.74-1.59,1.46-2.4,2.17-.04.04-.09.08-.13.12-.06.05-.12.1-.18.14-1.59,1.4-3.23,2.74-4.9,4.04-18.89,14.68-42.63,23.41-68.4,23.41-28.61,0-54.71-10.76-74.46-28.46-1.83-1.64-3.62-3.35-5.34-5.11-2.84-2.9-5.52-5.96-8.03-9.15-.37-.47-.73-.94-1.09-1.42-1.29-1.67-2.51-3.38-3.69-5.13-12.02-17.81-19.03-39.27-19.03-62.37s7.3-45.44,19.77-63.45c.53-.77,1.08-1.53,1.63-2.29.44-.61.9-1.22,1.36-1.82.77-1.02,1.57-2.03,2.38-3.02.31-.38.63-.76.94-1.13.82-.99,1.66-1.96,2.53-2.91.32-.37.64-.73.98-1.08,1.03-1.12,2.1-2.23,3.18-3.31,1.74-1.74,3.54-3.43,5.4-5.05C63.8,17.2,89.5,6.8,117.64,6.8c25.28,0,48.59,8.39,67.3,22.56,1.73,1.31,3.41,2.66,5.06,4.07.02.01.05.03.07.05.1.09.21.18.31.27.73.62,1.44,1.25,2.15,1.9.17.14.34.3.5.45.68.62,1.35,1.25,2.01,1.89.08.07.16.14.23.22.79.76,1.56,1.53,2.32,2.31.78.8,1.54,1.6,2.29,2.42.03.03.06.07.08.1.75.81,1.48,1.63,2.19,2.46.67.77,1.33,1.55,1.97,2.35.07.08.13.16.2.24,1.84,2.26,3.59,4.59,5.25,6.99-2.11-2.92-6.11-3.33-8.74-1.29,0,0-.01,0-.01.01-.55.43-1.05.97-1.45,1.61-11.19,17.96-17.65,39.18-17.65,61.9s6.76,44.91,18.42,63.14c2.39,3.73,7.81,3.79,10.27.12Z"/><path class="cls-1" d="M224.72,86.74s-.03-.1-.05-.14c-.03-.11-.06-.23-.1-.34.05.11.08.23.11.34.02.05.03.09.04.14Z"/><path class="cls-1" d="M43.68,117.31c0,19.65-4.83,38.16-13.36,54.43-2.25,4.29-8.43,4.35-10.75.1-8.65-15.86-13.57-34.05-13.57-53.39s5.15-38.41,14.2-54.54c2.37-4.22,8.55-4.11,10.75.21,8.14,15.96,12.73,34.05,12.73,53.2Z"/><path class="cls-1" d="M229.29,118.44c0,.82-.01,1.63-.03,2.45-.01.76-.04,1.52-.07,2.27-.02.44-.04.87-.06,1.3-.01.21-.02.41-.03.62-.03.43-.06.86-.09,1.29-.04.6-.09,1.19-.14,1.78-.06.69-.12,1.38-.2,2.07-.01.18-.03.36-.06.55-.04.44-.09.88-.15,1.32-.21,1.79-.47,3.56-.78,5.32-.11.69-.24,1.37-.37,2.05-.13.68-.26,1.36-.41,2.04-.12.57-.24,1.14-.37,1.7-.04.18-.08.36-.12.53-.14.6-.28,1.2-.43,1.8-.17.67-.34,1.33-.52,2-.18.66-.36,1.32-.55,1.97-.57,1.98-1.19,3.93-1.87,5.86-.16.46-.33.92-.49,1.37-.1.26-.19.52-.29.78-.18.49-.37.97-.56,1.45-.03.09-.06.18-.1.26-.21.53-.42,1.06-.64,1.59-.3.75-.61,1.49-.94,2.23-.25.58-.51,1.16-.77,1.73-.91,2-1.88,3.96-2.91,5.89-.29.56-.59,1.12-.9,1.67-.28.51-.56,1.01-.85,1.51-.31.55-.63,1.1-.96,1.64l-.9,1.5c-.41.66-.83,1.33-1.27,1.98-.34.54-.69,1.08-1.05,1.61-2.46,3.67-7.88,3.61-10.27-.12-11.66-18.23-18.42-39.89-18.42-63.14s6.46-43.94,17.65-61.9c.4-.64.9-1.18,1.45-1.61,0-.01.01-.01.01-.01,2.63-2.04,6.63-1.63,8.74,1.29.19.28.39.56.58.85.21.31.43.63.64.95.55.84,1.1,1.69,1.63,2.55.35.54.68,1.1,1.01,1.65.48.78.94,1.58,1.39,2.37.38.67.75,1.35,1.12,2.02.31.57.61,1.15.91,1.72.82,1.59,1.61,3.2,2.35,4.83.29.62.57,1.25.84,1.88.26.58.51,1.17.75,1.77.38.88.73,1.76,1.07,2.65.24.61.47,1.23.69,1.85.69,1.86,1.32,3.75,1.89,5.66.05.14.1.29.13.43.04.11.07.23.1.34.02.04.04.09.05.14.23.77.46,1.56.67,2.34.1.37.2.74.29,1.11.11.43.22.85.32,1.28.07.23.12.46.17.69.14.55.27,1.1.39,1.65.22.95.42,1.9.61,2.86.29,1.49.56,2.99.79,4.5.04.21.07.43.1.66.09.62.18,1.24.26,1.86.09.69.18,1.38.26,2.07.04.33.07.66.1.99.05.44.09.87.13,1.31.05.54.1,1.09.14,1.64h0c.05.66.1,1.31.13,1.96.04.6.07,1.2.1,1.81.04.82.06,1.65.08,2.48.02.83.03,1.66.03,2.49Z"/><path class="cls-1" d="M210.41,180.57c-1.64,2.45-3.39,4.84-5.22,7.15-.66.84-1.34,1.67-2.04,2.49-.07.09-.14.18-.23.27-.62.74-1.25,1.48-1.9,2.2-.1.12-.2.23-.31.34-.71.79-1.43,1.57-2.16,2.34-.01.02-.04.04-.06.07-.75.78-1.51,1.55-2.27,2.31-.03.04-.07.07-.11.1-.73.73-1.47,1.44-2.22,2.14-.08.08-.16.16-.24.22-.79.74-1.59,1.46-2.4,2.17-.04.04-.09.08-.13.12-.06.05-.12.1-.18.14-2.73,2.22-6.79,1.69-8.86-1.2-17.05-23.67-27.1-52.73-27.1-84.12s9.64-59.27,26.07-82.67c2.06-2.95,6.19-3.5,8.95-1.21.02.01.05.03.07.05.1.09.21.18.31.27.73.62,1.44,1.25,2.15,1.9.17.14.34.3.5.45.68.62,1.35,1.25,2.01,1.89.08.07.16.14.23.22.79.76,1.56,1.53,2.32,2.31.78.8,1.54,1.6,2.29,2.42.03.03.06.07.08.1.75.81,1.48,1.63,2.19,2.46.67.77,1.33,1.55,1.97,2.35.07.08.13.16.2.24,1.84,2.26,3.59,4.59,5.25,6.99-2.11-2.92-6.11-3.33-8.74-1.29,0,0-.01,0-.01.01-.55.43-1.05.97-1.45,1.61-11.19,17.96-17.65,39.18-17.65,61.9s6.76,44.91,18.42,63.14c2.39,3.73,7.81,3.79,10.27.12Z"/><path class="cls-1" d="M70.42,117.31c0,28.83-8.47,55.68-23.06,78.21-2.13,3.29-6.78,3.79-9.52.99-4.72-4.83-9.01-10.08-12.81-15.7-12.02-17.81-19.03-39.27-19.03-62.37s7.3-45.44,19.77-63.45c3.86-5.58,8.21-10.78,13-15.56,2.77-2.77,7.41-2.22,9.51,1.1,14.02,22.23,22.15,48.56,22.15,76.78Z"/><path class="cls-1" d="M365.56,93.34c0,1.32-.03,2.65-.1,3.97-.02.45-.05.89-.08,1.33-.08,1.4-.21,2.8-.37,4.2-.19,1.67-.42,3.33-.71,4.99-.09.5-.18,1-.27,1.5l-.03.15s0,.02,0,.03c-.02.16-.05.32-.09.49-.06.29-.12.59-.18.89-.06.29-.12.59-.19.88-.1.47-.2.94-.32,1.41-.05.22-.1.44-.16.67,0,.03-.01.05-.02.08-.08.36-.17.71-.27,1.07-.08.32-.17.65-.26.97-.13.49-.27.98-.41,1.47-.13.46-.27.91-.41,1.36-.17.57-.35,1.14-.54,1.7l-.39,1.14c-.1.3-.21.6-.32.9-.01.05-.03.1-.05.15-.28.79-.58,1.57-.89,2.35-.18.47-.37.93-.57,1.4-.12.32-.26.64-.4.95-.05.12-.1.24-.15.36-.04.09-.08.18-.12.27-.15.35-.3.69-.46,1.03-.19.43-.39.85-.59,1.27-.12.26-.24.52-.38.78-.2.43-.41.85-.63,1.27,0,.02,0,.04-.02.05-.19.37-.38.74-.57,1.1-.06.12-.12.23-.18.35-.02.05-.05.1-.08.14-.01.03-.02.05-.04.07-.08.16-.17.33-.26.49-.27.51-.55,1.02-.85,1.52-.21.39-.44.78-.67,1.16-.26.45-.52.89-.8,1.33-.25.42-.51.84-.78,1.25-.13.2-.25.4-.38.59-.11.17-.22.33-.33.5-.15.23-.3.46-.46.69-.78,1.16-1.59,2.31-2.44,3.44-.24.32-.48.63-.72.94-.83,1.09-1.7,2.17-2.6,3.23-.23.27-.47.55-.7.82-.13.14-.25.29-.38.43-.29.33-.59.66-.89.99-1.13,1.26-2.32,2.49-3.54,3.69-.4.39-.8.78-1.21,1.16-.11.11-.23.22-.35.33-.52.49-1.05.98-1.59,1.45-.34.31-.69.61-1.03.91-.09.07-.17.15-.26.22-.36.31-.73.62-1.1.92-.14.12-.28.24-.42.35-.11.09-.22.18-.33.27-.11.1-.23.19-.35.28-.16.13-.32.26-.49.39-.65.51-1.3,1.01-1.96,1.5-.63.47-1.27.94-1.91,1.39-.14.1-.29.2-.43.3-.55.38-1.11.76-1.67,1.13-.15.1-.29.19-.44.28-.65.43-1.3.84-1.96,1.24-.45.28-.91.56-1.38.83-.46.27-.92.54-1.39.8-1.2.68-2.41,1.33-3.64,1.94-.67.34-1.35.67-2.04.99-.48.23-.96.45-1.44.66-.28.13-.57.26-.87.38-.12.07-.25.12-.38.17-.14.07-.28.13-.42.18-.53.23-1.06.44-1.59.65-.38.15-.75.3-1.12.44-.49.19-.98.37-1.48.55-.44.17-.9.32-1.35.48-.54.19-1.08.37-1.63.54-.39.13-.79.25-1.18.37-.3.09-.6.18-.9.27-.2.06-.41.12-.62.18-.14.04-.28.08-.43.12-.45.13-.89.25-1.34.36-.03.02-.06.03-.1.03-.49.13-.98.25-1.48.37-.3.08-.61.15-.91.22-.33.08-.66.16-1,.22-.35.08-.7.16-1.05.23-.06.02-.13.03-.2.04-.41.09-.82.17-1.23.24-.07.02-.13.03-.2.04-.04.01-.07.02-.11.02-.56.11-1.11.2-1.67.3-1.09.18-2.19.34-3.29.47-.58.08-1.17.15-1.76.21-5.28.57-10.61.65-15.9.24-1.7-.13-3.4-.31-5.1-.54-16.24-2.19-31.97-8.97-45.1-20.31.19-.48.38-.96.56-1.45.1-.26.19-.52.29-.78.16-.45.33-.91.49-1.37.68-1.93,1.3-3.88,1.87-5.86.19-.65.37-1.31.55-1.97.18-.67.35-1.33.52-2,.15-.6.29-1.2.43-1.8.04-.17.08-.35.12-.53.13-.56.25-1.13.37-1.7.15-.68.28-1.36.41-2.04.13-.68.26-1.36.37-2.05.31-1.76.57-3.53.78-5.32.06-.44.11-.88.15-1.32.03-.19.05-.37.06-.55.08-.69.14-1.38.2-2.07.05-.59.1-1.18.14-1.78.03-.43.06-.86.09-1.29.01-.21.02-.41.03-.62.02-.43.04-.86.06-1.3.03-.75.06-1.51.07-2.27.02-.82.03-1.63.03-2.45s-.01-1.66-.03-2.49c-.02-.83-.04-1.66-.08-2.48-.03-.61-.06-1.21-.1-1.81-.03-.65-.08-1.3-.13-1.95h0c-.04-.56-.09-1.11-.14-1.65-.04-.44-.08-.87-.13-1.31-.03-.33-.06-.66-.1-.99-.08-.69-.17-1.38-.26-2.07-.08-.62-.17-1.24-.26-1.86-.03-.23-.06-.45-.1-.66-.23-1.51-.5-3.01-.79-4.5-.19-.96-.39-1.91-.61-2.86-.12-.55-.25-1.1-.39-1.65-.05-.23-.1-.46-.17-.69-.1-.43-.21-.85-.32-1.28-.09-.37-.19-.74-.29-1.11-.21-.78-.44-1.57-.67-2.34-.01-.05-.03-.1-.05-.14-.03-.11-.06-.23-.1-.34-.03-.14-.08-.29-.13-.43-.57-1.91-1.2-3.8-1.89-5.66-.22-.62-.45-1.24-.69-1.85-.34-.89-.69-1.77-1.07-2.65-.24-.6-.49-1.19-.75-1.77-.27-.63-.55-1.26-.84-1.88-.74-1.63-1.53-3.24-2.35-4.83-.3-.57-.6-1.15-.91-1.72-.37-.67-.74-1.35-1.12-2.02-.45-.79-.91-1.59-1.39-2.37-.33-.55-.66-1.11-1.01-1.65-.53-.86-1.08-1.71-1.63-2.55-.21-.32-.43-.64-.64-.95-.19-.29-.39-.57-.58-.85-2.11-2.92-6.11-3.33-8.74-1.29.6-1.2,1.24-2.4,1.91-3.58.32-.58.66-1.16,1.01-1.74.12-.21.25-.42.37-.62.32-.53.65-1.06.99-1.58.29-.46.59-.91.89-1.36.3-.45.6-.9.91-1.35.38-.54.76-1.09,1.16-1.63.2-.28.41-.57.62-.85.04-.05.09-.11.13-.17.41-.56.84-1.11,1.27-1.65.03-.05.07-.09.1-.13.47-.6.96-1.2,1.46-1.79.13-.16.27-.32.4-.48.47-.56.96-1.12,1.46-1.67.18-.22.38-.43.57-.64.45-.5.9-.99,1.37-1.48.14-.15.28-.29.43-.44.55-.58,1.12-1.15,1.69-1.71.44-.43.89-.86,1.34-1.28.38-.37.77-.72,1.15-1.07.42-.38.84-.75,1.26-1.12.43-.38.87-.75,1.31-1.12.43-.36.86-.72,1.3-1.07.39-.32.77-.62,1.16-.93.05-.04.11-.08.16-.12.44-.34.89-.68,1.34-1.02,1.34-1,2.71-1.96,4.09-2.87.46-.31.93-.61,1.39-.9.47-.3.94-.59,1.41-.87.47-.29.94-.57,1.42-.84.47-.28.95-.55,1.43-.81.47-.27.95-.53,1.44-.79,2.9-1.54,5.86-2.9,8.88-4.09.5-.19,1-.39,1.5-.57,2.02-.75,4.07-1.43,6.13-2.02.38-.11.75-.22,1.13-.32.08-.03.17-.05.25-.07.11-.03.21-.06.32-.08,2.53-.69,5.1-1.25,7.68-1.69,4.93-.85,9.93-1.27,14.92-1.27.35,0,.7,0,1.05.01,1.85.02,3.7.1,5.55.24,20.27,1.54,40.1,10.16,55.46,25.81,13.81,14.07,21.87,31.62,24.2,49.77.22,1.7.39,3.4.51,5.1.15,2.13.22,4.27.21,6.41Z"/><path class="cls-1" d="M339.5,155.15c-12.8,12.56-28.48,20.36-44.87,23.43-3.39.63-6.31-2.42-5.54-5.78,3.77-16.44,12.13-32.04,25.07-44.73,12.64-12.41,27.97-20.4,44.08-23.99,3.37-.75,6.39,2.2,5.73,5.59-3.23,16.72-11.39,32.65-24.46,45.48Z"/><path class="cls-1" d="M261.42,15.13c-4.44,13.25-11.99,25.68-22.65,36.14-6.65,6.53-14.06,11.84-21.92,15.92-.3-.57-.6-1.15-.91-1.72-.37-.67-.74-1.35-1.12-2.02-.45-.79-.91-1.59-1.39-2.37-.33-.55-.66-1.11-1.01-1.65-.53-.86-1.08-1.71-1.63-2.55-.21-.32-.43-.64-.64-.95-.19-.29-.39-.57-.58-.85-2.11-2.92-6.11-3.33-8.74-1.29.6-1.2,1.24-2.4,1.91-3.58.32-.58.66-1.16,1.01-1.74.12-.21.25-.42.37-.62.32-.53.65-1.06.99-1.58.29-.46.59-.91.89-1.36.3-.45.6-.9.91-1.35.38-.54.76-1.09,1.16-1.63.2-.28.41-.57.62-.85.04-.05.09-.11.13-.17.41-.56.84-1.11,1.27-1.65.03-.05.07-.09.1-.13.47-.6.96-1.2,1.46-1.79.13-.16.27-.32.4-.48.47-.56.96-1.12,1.46-1.67.18-.22.38-.43.57-.64.45-.5.9-.99,1.37-1.48.14-.15.28-.29.43-.44.55-.58,1.12-1.15,1.69-1.71.44-.43.89-.86,1.34-1.28.38-.37.77-.72,1.15-1.07.42-.38.84-.75,1.26-1.12.43-.38.87-.75,1.31-1.12.43-.36.86-.72,1.3-1.07.39-.32.77-.62,1.16-.93.05-.04.11-.08.16-.12.44-.34.89-.68,1.34-1.02,1.34-1.01,2.71-1.97,4.09-2.87.46-.31.93-.61,1.39-.9.47-.3.94-.59,1.41-.87.47-.29.94-.57,1.42-.84.47-.28.95-.55,1.43-.81.47-.27.95-.53,1.44-.79,2.9-1.54,5.86-2.9,8.88-4.09.5-.19,1-.39,1.5-.57,2.02-.75,4.07-1.43,6.13-2.02.38-.11.75-.22,1.13-.32.08-.03.17-.05.25-.07.11-.03.21-.06.32-.08,3.51-.71,6.6,2.69,5.44,6.17Z"/><path class="cls-1" d="M339.5,155.15c-14.57,14.3-32.88,22.43-51.7,24.43-5.28.56-10.61.64-15.9.24-2.82-.22-4.83-2.82-4.35-5.6,3.85-22.42,14.53-43.88,32-61.02,17.11-16.8,38.24-27.01,60.23-30.64,2.79-.46,5.37,1.57,5.57,4.38.37,5.3.26,10.63-.35,15.91-2.15,19.18-10.67,37.75-25.5,52.31Z"/><path class="cls-1" d="M284,11.89c-4.71,19.94-14.92,38.84-30.63,54.25-8.67,8.51-18.37,15.33-28.69,20.46h-.01c-.03-.11-.06-.23-.1-.34-.03-.14-.08-.29-.13-.43-.57-1.91-1.2-3.8-1.89-5.66-.22-.62-.45-1.24-.69-1.85-.34-.89-.69-1.77-1.07-2.65-.24-.6-.49-1.19-.75-1.77-.27-.63-.55-1.26-.84-1.88-.74-1.63-1.53-3.24-2.35-4.83-.3-.57-.6-1.15-.91-1.72-.37-.67-.74-1.35-1.12-2.02-.45-.79-.91-1.59-1.39-2.37-.33-.55-.66-1.11-1.01-1.65-.53-.86-1.08-1.71-1.63-2.55-.21-.32-.43-.64-.64-.95-.19-.29-.39-.57-.58-.85-2.11-2.92-6.11-3.33-8.74-1.29.6-1.2,1.24-2.4,1.91-3.58.32-.58.66-1.16,1.01-1.74.12-.21.25-.42.37-.62.32-.53.65-1.06.99-1.58.29-.46.59-.91.89-1.36.3-.45.6-.9.91-1.35.38-.54.76-1.09,1.16-1.63.2-.28.41-.57.62-.85.04-.05.09-.11.13-.17.41-.56.84-1.11,1.27-1.65.03-.05.07-.09.1-.13.47-.6.96-1.2,1.46-1.79.13-.16.27-.32.4-.48.47-.56.96-1.12,1.46-1.67.18-.22.38-.43.57-.64.45-.5.9-.99,1.37-1.48.14-.15.28-.29.43-.44.55-.58,1.12-1.15,1.69-1.71.44-.43.89-.86,1.34-1.28.38-.37.77-.72,1.15-1.07.42-.38.84-.75,1.26-1.12.43-.38.87-.75,1.31-1.12.43-.36.86-.72,1.3-1.07.39-.32.77-.62,1.16-.93.05-.04.11-.08.16-.12.44-.34.89-.68,1.34-1.02,1.34-1,2.71-1.96,4.09-2.87.46-.31.93-.61,1.39-.9.47-.3.94-.59,1.41-.87.47-.29.94-.57,1.42-.84.47-.28.95-.55,1.43-.81.47-.27.95-.53,1.44-.79,2.9-1.54,5.86-2.9,8.88-4.09.5-.19,1-.39,1.5-.57,2.02-.75,4.07-1.43,6.13-2.02.38-.11.75-.22,1.13-.32.08-.03.17-.05.25-.07.11-.03.21-.06.32-.08,2.53-.69,5.1-1.25,7.68-1.69,4.93-.85,9.93-1.27,14.92-1.27h.84c.07,0,.14,0,.21.01,2.94.16,5.05,2.98,4.37,5.88Z"/><circle class="cls-1" cx="240.73" cy="218.41" r="21.46"/></g></svg>