<?xml version="1.0" encoding="UTF-8"?>
<svg id="Layer_1" data-name="Layer 1" xmlns="http://www.w3.org/2000/svg" xmlns:xlink="http://www.w3.org/1999/xlink" viewBox="0 0 717.6 598">
  <defs>
    <style>
      .cls-1 {
        mask: url(#mask);
      }

      .cls-2 {
        fill: url(#radial-gradient);
      }

      .cls-2, .cls-3, .cls-4 {
        stroke-width: 0px;
      }

      .cls-5 {
        opacity: .71;
      }

      .cls-4 {
        fill: #fcd539;
      }
    </style>
    <radialGradient id="radial-gradient" cx="362.2" cy="301.56" fx="362.2" fy="301.56" r="310.6" gradientTransform="translate(-1.29 62.25) rotate(-.31) scale(1 .8)" gradientUnits="userSpaceOnUse">
      <stop offset=".1" stop-color="#fff" stop-opacity=".98"/>
      <stop offset=".15" stop-color="#e4e4e4" stop-opacity=".98"/>
      <stop offset=".28" stop-color="#a9a9a9" stop-opacity=".99"/>
      <stop offset=".42" stop-color="#757575" stop-opacity=".99"/>
      <stop offset=".54" stop-color="#4b4b4b" stop-opacity=".99"/>
      <stop offset=".67" stop-color="#2a2a2a" stop-opacity="1"/>
      <stop offset=".79" stop-color="#121212" stop-opacity="1"/>
      <stop offset=".9" stop-color="#040404" stop-opacity="1"/>
      <stop offset="1" stop-color="#000"/>
    </radialGradient>
    <mask id="mask" x="0" y="-2.09" width="726.8" height="602.17" maskUnits="userSpaceOnUse">
      <g>
        <rect class="cls-2" x="5.3" y="-1.58" width="721" height="601.17"/>
        <path class="cls-3" d="M725.8-1.09v600.17H5.8V-1.09h720M726.8-2.09H4.8v602.17h722V-2.09h0Z"/>
      </g>
    </mask>
  </defs>
  <g class="cls-1">
    <g>
      <g class="cls-5">
        <path class="cls-4" d="M119.1.5v118.6H.5V.5h118.6M119.6,0H0v119.6h119.6V0h0Z"/>
      </g>
      <g class="cls-5">
        <path class="cls-4" d="M238.7.5v118.6h-118.6V.5h118.6M239.2,0h-119.6v119.6h119.6V0h0Z"/>
      </g>
      <g class="cls-5">
        <rect class="cls-4" x="239.45" y=".25" width="119.1" height="119.1"/>
        <path class="cls-4" d="M358.3.5v118.6h-118.6V.5h118.6M358.8,0h-119.6v119.6h119.6V0h0Z"/>
      </g>
      <g class="cls-5">
        <path class="cls-4" d="M477.9.5v118.6h-118.6V.5h118.6M478.4,0h-119.6v119.6h119.6V0h0Z"/>
      </g>
      <g class="cls-5">
        <path class="cls-4" d="M597.5.5v118.6h-118.6V.5h118.6M598,0h-119.6v119.6h119.6V0h0Z"/>
      </g>
      <g class="cls-5">
        <path class="cls-4" d="M717.1.5v118.6h-118.6V.5h118.6M717.6,0h-119.6v119.6h119.6V0h0Z"/>
      </g>
      <g class="cls-5">
        <path class="cls-4" d="M119.1,120.1v118.6H.5v-118.6h118.6M119.6,119.6H0v119.6h119.6v-119.6h0Z"/>
      </g>
      <g class="cls-5">
        <path class="cls-4" d="M238.7,120.1v118.6h-118.6v-118.6h118.6M239.2,119.6h-119.6v119.6h119.6v-119.6h0Z"/>
      </g>
      <g class="cls-5">
        <path class="cls-4" d="M358.3,120.1v118.6h-118.6v-118.6h118.6M358.8,119.6h-119.6v119.6h119.6v-119.6h0Z"/>
      </g>
      <g class="cls-5">
        <path class="cls-4" d="M477.9,120.1v118.6h-118.6v-118.6h118.6M478.4,119.6h-119.6v119.6h119.6v-119.6h0Z"/>
      </g>
      <g class="cls-5">
        <path class="cls-4" d="M597.5,120.1v118.6h-118.6v-118.6h118.6M598,119.6h-119.6v119.6h119.6v-119.6h0Z"/>
      </g>
      <g class="cls-5">
        <path class="cls-4" d="M717.1,120.1v118.6h-118.6v-118.6h118.6M717.6,119.6h-119.6v119.6h119.6v-119.6h0Z"/>
      </g>
      <g class="cls-5">
        <path class="cls-4" d="M119.1,239.7v118.6H.5v-118.6h118.6M119.6,239.2H0v119.6h119.6v-119.6h0Z"/>
      </g>
      <g class="cls-5">
        <path class="cls-4" d="M238.7,239.7v118.6h-118.6v-118.6h118.6M239.2,239.2h-119.6v119.6h119.6v-119.6h0Z"/>
      </g>
      <g class="cls-5">
        <path class="cls-4" d="M358.3,239.7v118.6h-118.6v-118.6h118.6M358.8,239.2h-119.6v119.6h119.6v-119.6h0Z"/>
      </g>
      <g class="cls-5">
        <path class="cls-4" d="M477.9,239.7v118.6h-118.6v-118.6h118.6M478.4,239.2h-119.6v119.6h119.6v-119.6h0Z"/>
      </g>
      <g class="cls-5">
        <path class="cls-4" d="M597.5,239.7v118.6h-118.6v-118.6h118.6M598,239.2h-119.6v119.6h119.6v-119.6h0Z"/>
      </g>
      <g class="cls-5">
        <path class="cls-4" d="M717.1,239.7v118.6h-118.6v-118.6h118.6M717.6,239.2h-119.6v119.6h119.6v-119.6h0Z"/>
      </g>
      <g class="cls-5">
        <path class="cls-4" d="M119.1,359.3v118.6H.5v-118.6h118.6M119.6,358.8H0v119.6h119.6v-119.6h0Z"/>
      </g>
      <g class="cls-5">
        <rect class="cls-4" x="119.85" y="359.05" width="119.1" height="119.1"/>
        <path class="cls-4" d="M238.7,359.3v118.6h-118.6v-118.6h118.6M239.2,358.8h-119.6v119.6h119.6v-119.6h0Z"/>
      </g>
      <g class="cls-5">
        <path class="cls-4" d="M358.3,359.3v118.6h-118.6v-118.6h118.6M358.8,358.8h-119.6v119.6h119.6v-119.6h0Z"/>
      </g>
      <g class="cls-5">
        <path class="cls-4" d="M477.9,359.3v118.6h-118.6v-118.6h118.6M478.4,358.8h-119.6v119.6h119.6v-119.6h0Z"/>
      </g>
      <g class="cls-5">
        <path class="cls-4" d="M597.5,359.3v118.6h-118.6v-118.6h118.6M598,358.8h-119.6v119.6h119.6v-119.6h0Z"/>
      </g>
      <g class="cls-5">
        <path class="cls-4" d="M717.1,359.3v118.6h-118.6v-118.6h118.6M717.6,358.8h-119.6v119.6h119.6v-119.6h0Z"/>
      </g>
      <g class="cls-5">
        <path class="cls-4" d="M119.1,478.9v118.6H.5v-118.6h118.6M119.6,478.4H0v119.6h119.6v-119.6h0Z"/>
      </g>
      <g class="cls-5">
        <path class="cls-4" d="M238.7,478.9v118.6h-118.6v-118.6h118.6M239.2,478.4h-119.6v119.6h119.6v-119.6h0Z"/>
      </g>
      <g class="cls-5">
        <path class="cls-4" d="M358.3,478.9v118.6h-118.6v-118.6h118.6M358.8,478.4h-119.6v119.6h119.6v-119.6h0Z"/>
      </g>
      <g class="cls-5">
        <rect class="cls-4" x="359.05" y="478.65" width="119.1" height="119.1"/>
        <path class="cls-4" d="M477.9,478.9v118.6h-118.6v-118.6h118.6M478.4,478.4h-119.6v119.6h119.6v-119.6h0Z"/>
      </g>
      <g class="cls-5">
        <path class="cls-4" d="M597.5,478.9v118.6h-118.6v-118.6h118.6M598,478.4h-119.6v119.6h119.6v-119.6h0Z"/>
      </g>
      <g class="cls-5">
        <path class="cls-4" d="M717.1,478.9v118.6h-118.6v-118.6h118.6M717.6,478.4h-119.6v119.6h119.6v-119.6h0Z"/>
      </g>
    </g>
  </g>
</svg>