<?xml version="1.0" encoding="UTF-8"?>
<svg id="Layer_2" data-name="Layer 2" xmlns="http://www.w3.org/2000/svg" viewBox="0 0 701.74 225.41">
  <defs>
    <style>
      .cls-1, .cls-2 {
        fill: #fff;
      }

      .cls-3 {
        fill: #fcd539;
      }

      .cls-4, .cls-5 {
        fill: #0695a4;
      }

      .cls-2 {
        stroke-linecap: round;
      }

      .cls-2, .cls-5 {
        stroke: #fff;
        stroke-miterlimit: 10;
      }
    </style>
  </defs>
  <rect class="cls-3" width="701.74" height="225.41" rx="7.68" ry="7.68"/>
  <path class="cls-5" d="m195.17,44.19c0-6.63,0-13.27,0-19.9,0-.54-.02-1.09.02-1.63.25-2.88,1.07-3.76,3.6-3.98,6.09-.53,12.18-.67,18.27.01,3.61.4,6.75,1.66,8.74,5.4,2.09,3.93,2.62,10.47-.87,14.06-.86.88-1.59,1.92-2.42,2.83-1.91,2.09-1.94,3.08-.27,5.42,3.99,5.58,4.98,11.88,3.4,18.72-1.26,5.45-3.37,6.38-7.52,6.68-6.18.45-12.41.16-18.62.1-2.45-.02-3.42-1.07-3.93-3.69-.37-1.9-.43-3.81-.42-5.74.03-6.09,0-12.18.01-18.28Zm5.83-7.46c0,2.89-.05,5.3.01,7.71.07,2.54.6,2.94,2.63,1.99,2.46-1.15,4.59-2.96,6.8-4.6,3.06-2.28,6.52-3.9,9.2-6.8,1.22-1.32,2.15-2.94,1.7-4.9-.46-2.04-1.88-3.1-3.71-3.49-2.08-.45-4.19-.39-6.3-.39-2.65,0-5.29.04-7.92.39-1.17.15-2.06.33-2.25,2.08-.31,2.84.01,5.66-.17,8.01Zm8.91,28.32c.92,0,1.83,0,2.75,0,.97,0,1.94.03,2.91,0,2.79-.1,4.61-1.63,4.85-4.33.3-3.34-.14-6.57-1.82-9.46-2.03-3.5-4.26-4.19-7.53-2.3-1.78,1.02-3.65,1.91-5.25,3.21-2.11,1.72-4.95,2.84-4.72,6.83.23,4-.02,6.2,4.44,6.06,1.45-.05,2.91,0,4.37,0Z"/>
  <path class="cls-5" d="m119.66,46.45c0-8.26.02-15.02-.02-21.78,0-1.28.17-2.52.37-3.75.26-1.64,1.83-2.89,3.37-2.9,8.42-.05,16.85-.09,25.27.04,2.37.04,4.22,1.86,4.4,4.93.66,10.9.23,21.81.26,32.71.01,3.95-1.11,6.51-5,7.21-1.25.23-1.97,1.06-1.47,2.71.36,1.18.77,2.35.7,3.67-.09,1.74-1.17,2.59-2.68,2.08-2.05-.7-2.65-2.79-3.32-4.59-1.04-2.82-2.71-4.05-5.4-3.94-2.48.1-4.97.02-7.45.03-2.5,0-2.82.33-3.31,3.05-.15.83-.24,1.66-.25,2.51,0,1.74-1.04,3.1-2.4,3.22-1.35.12-2.6-1.25-2.77-3.03-.75-7.88-.03-15.78-.31-22.16Zm17.17,9.54c2.81,0,5.61.01,8.42,0,2.2-.01,3.26-1.18,3.25-3.6-.03-6.98.07-13.97-.27-20.95-.22-4.54-1.17-5.27-4.78-5.43-4.69-.22-9.39-.1-14.08,0-3.24.07-4.1,1.17-4.2,4.83,0,.24,0,.48,0,.72,0,5.67.02,11.33-.01,17,0,1.7.33,3.34.52,5,.21,1.9,1.21,2.46,2.75,2.44,2.81-.03,5.61,0,8.42,0Z"/>
  <path class="cls-5" d="m300.82,40.05c.35,8.21-.16,16.41-.4,24.6-.14,4.93-1.4,7.19-6.5,7.25-6.59.08-13.18.01-19.77.02-.82,0-1.61-.07-2.37-.43-1.14-.53-1.67-1.29-1.77-2.82-.38-5.61.04-11.21-.06-16.81-.15-8.44-.2-16.88-.24-25.32,0-2.06.18-4.09.37-6.12.18-1.92,1.72-2.36,2.97-2.38,7.29-.1,14.59-.16,21.87.05,2.89.08,5.23,1.52,5.65,6.06.49,5.31.03,10.6.25,15.89Zm-5.16,4.17c0-4.76,0-9.52,0-14.28,0-1.63-.39-3.05-2.07-3.2-5.38-.49-10.77-.7-16.15-.07-1.18.14-1.79.92-1.94,2.41-.28,2.7-.27,5.4-.27,8.1,0,7.17-.01,14.34,0,21.51,0,3.66.57,4.63,2.97,4.78,4.31.26,8.63.26,12.93-.16,4.27-.42,4.52-.88,4.51-5.71,0-4.46,0-8.92,0-13.38Z"/>
  <path class="cls-5" d="m77.18,39.53c0,5.13.05,10.26-.03,15.38-.03,1.83-.08,3.67-.97,5.38-.98,1.9-2.44,2.55-4.24,2.56-6.37.02-12.75.01-19.12.02-3.4,0-4.37,1.08-4.49,4.93-.08,2.54-1.22,3.67-3.34,3.45-1.66-.17-1.9-1.58-2.13-2.92-.15-.87-.05-1.8-.04-2.71.21-12.48.11-24.95,0-37.43-.02-2.04.15-4.1.32-6.14.21-2.49,1.62-4.05,3.85-4.06,8.48-.05,16.96-.05,25.44.02,2.86.03,4.72,2.39,4.74,5.76.03,5.25,0,10.5,0,15.74Zm-28.85,1.73c0,3.77,0,6.79,0,9.81,0,3.67.92,4.84,4.17,4.88,5.56.08,11.13.05,16.69.02,1.71-.01,3.12-1.56,3.12-3.37,0-7.6.15-15.19-.32-22.78-.16-2.65-.47-3.22-2.88-3.53-5.86-.74-11.74-.52-17.6.1-2.08.22-2.65,1.25-2.89,3.5-.42,4.03,0,8.08-.29,11.35Z"/>
  <path class="cls-5" d="m163.73,32.82c0,3.56-.01,7.12,0,10.68,0,1.12-.12,2.57.94,2.99,1.04.41,1.66-.9,2.2-1.72,3.41-5.22,6.75-10.5,10.13-15.75,1.88-2.91,3.67-5.9,5.72-8.65,1.33-1.79,3.12-2.89,5.41-2.07,1.49.53,2.13,2.1,1.27,3.61-1.51,2.64-3.11,5.23-4.68,7.83-2.78,4.6-5.59,9.17-8.32,13.82-1.41,2.41-1.07,4.55.72,7.19,3.72,5.47,7.47,10.92,10.96,16.58.06.1.15.19.19.29.37.96,1.25,2.14.58,2.92-.79.92-2.01,1.56-3.39,1.06-1.57-.57-2.84-1.56-3.8-3.03-2.7-4.1-5.47-8.14-8.03-12.34-2.37-3.89-3.55-3.58-6.11-.05-2.63,3.62-4.33,7.68-3.8,12.55.14,1.32-.14,2.44-1.41,2.84-1.34.42-2.34-.41-3.03-1.52-.78-1.25-1.04-2.73-1.08-4.28-.09-3.26.36-6.51.28-9.76-.23-9.83-.3-19.66-.14-29.5.03-1.75.11-3.5.22-5.24.11-1.71,1.36-3.02,2.73-2.93,1.3.08,2.4,1.38,2.42,3.08.04,3.8.01,7.6.02,11.4Z"/>
  <path class="cls-5" d="m264.21,68.1c0,.24,0,.3,0,.36.04,1.58-.42,2.95-1.86,3.38-1.59.47-2.39-1.05-2.9-2.25-.5-1.2-.96-2.49-1.12-3.9-.18-1.59-1.06-2.81-2.67-2.78-4.74.09-9.48-.35-14.22.26-1.35.17-2,1.09-2.47,2.24-.48,1.18-.76,2.47-1.17,3.69-.35,1.06-1.07,1.78-1.97,2.24-1.54.79-2.95-.24-3.08-2.14-.12-1.84.44-3.58.84-5.27,1.29-5.47,2.18-11.04,3.47-16.5.83-3.51,1.65-7.04,2.36-10.57.97-4.82,2.11-9.58,3.09-14.4.4-1.97,1.2-3.7,3.39-3.89,2.78-.24,5.56-.47,8.04,1.35,1.2.88,1.62,2.34,1.8,3.82.44,3.54,1.38,6.96,2.04,10.45.55,2.91,1.3,5.78,1.56,8.76.17,1.96.78,3.84,1.15,5.76,1,5.18,1.97,10.37,3.27,15.48.33,1.31.31,2.72.44,3.91Zm-13.03-11.76c.71.07,1.41-.31,2.07-.26,1.87.13,2.09-1.12,1.89-2.63-.24-1.76-.41-3.54-.78-5.29-.82-3.82-1.31-7.74-2.18-11.54-.68-2.95-.86-6.02-1.86-8.9-.28-.8-.75-.93-1.31-1.04-.55-.1-1.07,0-1.36.67-.35.81-.89,1.55-.92,2.47-.04,1.46-.41,2.9-.82,4.18-1.19,3.66-1.61,7.52-2.66,11.21-.61,2.14-.94,4.39-1.34,6.6-.43,2.32.5,4.12,2.18,4.17,2.37.07,4.75-.01,7.1.36Z"/>
  <path class="cls-5" d="m99.63,18.71c1.56.09,3.2-.17,4.44,1.44.67.87,1.05,1.87,1.25,2.84,1.47,7.2,2.87,14.41,4.47,21.58,1.25,5.6,1.97,11.34,3.1,16.97.34,1.68.55,3.41.99,5.06.19.71.23,1.42.27,2.13.07,1.43-.28,2.66-1.62,3.13-1.01.35-2.99-1.05-3.22-2.36-.25-1.36-.83-2.57-1.11-3.92-.37-1.81-1.76-2.65-3.42-2.71-4.26-.15-8.52.03-12.76.42-1.78.16-3.04,1.17-3.64,3.37-.44,1.6-.78,3.49-2.44,4.44-1.61.92-2.76.39-2.97-1.58-.21-1.94.07-3.89.51-5.7,1.2-4.89,2.11-9.85,3.27-14.75,1.65-6.96,2.99-14.01,4.31-21.05.47-2.51.86-4.99,1.99-7.26.57-1.16,1.36-1.96,2.55-2.04,1.34-.09,2.69-.02,4.04-.02Zm-.72,37.63c1.41.05,2.79-.14,4.19-.3,1.21-.14,1.63-.62,1.67-2.02.11-4.21-1.1-8.15-1.76-12.21-.37-2.28-.68-4.59-1.26-6.82-.59-2.3-.59-4.73-1.46-6.98-.4-1.02-1.04-1.35-1.81-1.48-.77-.12-1.09.59-1.29,1.34-.5,1.83-1.11,3.62-1.51,5.47-.85,3.88-1.55,7.8-2.39,11.68-.6,2.78-1.39,5.5-2,8.28-.36,1.64.34,2.58,1.8,2.68,1.94.13,3.88.24,5.82.36Z"/>
  <path class="cls-5" d="m328.35,45.25c0-5.27.06-10.54-.03-15.8-.04-2.45.27-4.76,1.17-6.99.69-1.72,1.73-2.88,3.52-2.88,7.91,0,15.81-.03,23.72.02,2.82.01,4.76,2.28,4.93,5.55.26,5.2-.82,6.04-5.15,3.89-2.31-1.15-4.64-1.75-7.2-1.61-3.18.17-6.38.03-9.57.05-3.81.02-5.58,1.97-5.58,6.12,0,7.98,0,15.96,0,23.94,0,3.23.63,4.2,3.58,4.3,5.13.17,10.26.1,15.39.06,1.41-.01,2.31-1.06,2.65-2.52.95-4.18.97-8.38.03-12.58-.19-.85-.66-1.3-1.31-1.66-2.77-1.53-5.42-1.28-8.08.41-1.31.83-2.84,1.79-4.18.24-1.39-1.61-1.21-3.71-.76-5.69.45-2,1.84-2.16,3.48-2.46,3.6-.65,7.19-.44,10.78-.46,1.87-.01,3.73.11,5.29,1.75.71.75.89,1.67.93,2.4.33,7.1.92,14.2.46,21.31-.13,2.07-.42,4.26-2.05,5.89-1.56,1.56-3.5,1.65-5.26,1.65-7.2-.02-14.41.62-21.6-.35-3.21-.43-5.13-2.82-5.15-6.65-.03-5.97,0-11.93,0-17.9Z"/>
  <path class="cls-5" d="m537.69,68.23c-4.09,0-8.19.06-12.28-.02-2.71-.05-4.07-1.48-4.09-4.01-.02-2.8.88-3.83,3.46-3.83,6.59-.01,13.18-.01,19.77.02.99,0,1.93-.14,2.85-.52.65-.26.95-.72,1.02-1.54.22-2.62.13-5.24-.04-7.86-.11-1.76-.9-2.58-2.68-2.74-5.34-.47-10.67.17-16,.06-1.18-.02-2.34-.13-3.51-.33-5.14-.89-6.09-2.9-6.43-7.91-.34-5.01-.45-10.11.03-15.09.42-4.34,1.38-6.66,6.26-6.48,7.48.27,14.98.06,22.47.08,2.28,0,4.2,1.62,4.44,3.65.33,2.79-1.26,4.67-4.1,4.69-5.83.04-11.65.05-17.48,0-4.18-.03-6.4,2.04-5.92,6.67.06.61,0,1.24.01,1.86.01,3.35,1.34,4.92,4.43,4.95,4.99.04,9.99-.06,14.98-.06,1.59,0,3.21-.08,4.77.2,2.51.45,4.49,3.5,4.53,6.87.06,5.19.08,10.38,0,15.57-.07,3.88-1.8,5.73-5.28,5.79-3.74.07-7.49.01-11.23.01,0,0,0-.02,0-.02Z"/>
  <path class="cls-5" d="m494.02,18.08c4.17-.19,8.31.26,12.46.46,4.45.21,6.34,2.44,6.37,7.39.01,1.63-.01,3.25,0,4.88.09,7.96.36,15.91.02,23.87-.13,3.07-.93,4.53-3.5,5.73-1.45.68-2.66,1.49-2.38,3.68.18,1.42.26,3.44-.88,3.97-1.45.68-2.53-1.18-3.17-2.39-2.7-5.09-6.89-5.35-11.44-4.88-2.59.27-4.18,1.77-4.86,4.51-.42,1.73-1.31,3.03-2.96,2.87-1.76-.17-2.4-2.07-2.38-3.58.1-8.59-.93-17.17-.39-25.75.32-5.03.21-10.05.3-15.08.07-3.51.66-4.37,3.71-5.25,3.01-.87,6.07-.22,9.1-.44Zm-6.57,21.91s0,0,.01,0c0,3.41,0,6.82,0,10.23,0,1.73.59,2.63,2.3,2.8,4.65.48,9.27-.25,13.91-.08,3.22.11,4.09-.8,4.16-4.41.08-3.79.02-7.59-.07-11.38-.06-2.47-.13-4.94-.63-7.38-.29-1.46-.95-2.18-2.3-2.5-4.89-1.14-9.73-1-14.65-.12-2.23.4-2.9,1.4-2.78,3.77.15,3.01.04,6.04.04,9.06Z"/>
  <path class="cls-5" d="m598.73,44.84c0-5.5.14-11.01-.04-16.5-.18-5.78,2.88-8.7,7.52-8.47,4.85.25,9.71.13,14.56.04,6.46-.13,7.61,2.46,7.8,8.28.35,11.14.12,22.31.08,33.47,0,1.22-.15,2.51-.52,3.64-.7,2.1-1.84,3.7-4.11,3.95-6.01.67-12.04.89-18.05.76-4.53-.1-7.51-2.74-7.3-8.45.21-5.57.05-11.15.05-16.73,0,0,.01,0,.02,0Zm24.14,1.69c-.02-5.17.86-10.33.08-15.53-.21-1.4-.7-1.79-1.7-2.08-4.31-1.28-8.69-.78-13.02-.47-2.5.18-2.96,1.5-3.34,4.32-.45,3.36.08,6.64.07,9.96-.01,4.73-.04,9.45,0,14.18.04,4.09.92,5.1,4.49,5.21,2.36.07,4.72-.02,7.07.07,1.61.06,3.18-.08,4.74-.48,1.14-.29,1.66-.92,1.63-2.39-.11-4.26-.04-8.52-.04-12.78Z"/>
  <path class="cls-5" d="m444.51,41.97c0-6.04.18-12.1-.06-18.13-.16-3.92,1.58-5.5,4.98-5.68,6.57-.36,13.17-.15,19.76-.07,2.56.03,4.07,1.95,4.04,4.71-.02,1.83-.55,2.87-2.46,3.21-4.22.76-8.44.15-12.65.39-.42.02-.83-.02-1.25,0-6.63.38-6.32,1.01-5.98,8.14.21,4.41.77,4.76,4.9,5.08,3.03.23,6.09-.11,9.13-.19,1.73-.05,3.44,0,5.15.45,1.34.35,2.55.81,2.73,2.57.2,1.98-.24,3.49-2.19,4.28-3.24,1.31-6.54,1.23-9.84.83-2.72-.34-5.4.14-8.09.25-.91.03-1.36.67-1.49,1.61-.39,2.77-.12,5.55.04,8.31.06.92.53,1.53,1.58,1.77,3.24.73,6.49.29,9.73.35,2.48.04,4.97-.18,7.43.52,1.69.48,2.6,1.59,2.85,3.48.27,2.07-.76,3.16-2.29,3.88-.84.4-1.72.54-2.64.54-5.34-.02-10.68-.06-16.02.01-2.02.03-3.94-.63-5.54-1.65-1.59-1.02-1.78-3.36-1.8-5.36-.05-6.43-.02-12.86-.02-19.29Z"/>
  <path class="cls-5" d="m665.21,39.39c-.12,4.65.05,9.29-.28,13.94-.18,2.52.24,5.09.24,7.64,0,1.92-.12,3.87-.46,5.75-.33,1.79-1.39,3.1-3.18,3.07-1.78-.03-2.75-1.31-2.92-3.18-.15-1.69-.03-3.41-.06-5.11-.07-3.33-.84-4.74-3.74-5.07-4.05-.47-8.15-.67-12.21.22-1.29.28-1.89.95-2.04,2.63-.24,2.66-.37,5.36-1.11,7.98-.42,1.48-1.14,2.79-2.3,2.69-1.28-.1-2.26-1.47-2.3-3.09-.08-3.02-.01-6.04-.06-9.06-.15-9.53-.59-19.05-.26-28.58.07-2.09.22-4.17.29-6.26.05-1.62.99-2.68,2.17-2.93,1.45-.31,1.96,1.17,2.41,2.49,1.22,3.59.73,7.33.84,11.02.13,4.32-.32,8.67.38,12.98.15.94.28,1.7,1.25,1.78,4.73.42,9.46,1.28,14.21.14,1.1-.26,1.47-.92,1.79-2.13.73-2.74.7-5.49.7-8.27,0-4.26-.03-8.53.02-12.79.04-3.21,1.53-4.88,3.83-4.37,1.43.32,2.23,1.24,2.41,2.99.55,5.17.33,10.36.42,15.54Z"/>
  <path class="cls-5" d="m395.29,45.18c0-3.41.05-6.82-.02-10.22-.03-1.56.56-2.87,1.15-4.13.39-.83,1.12-1.52,2.22-1.37,1.15.16,1.59,1.13,1.99,2.05.32.73.46,1.64.45,2.46-.07,6.97.3,13.93-.19,20.9-.14,1.93-.16,3.87-.18,5.8-.07,5.66-1.05,7.44-6.17,7.76-7.41.45-14.83-.06-22.24-.45-1.58-.08-3.47-2.69-3.6-5.09-.35-7.02-1.36-13.98-1.33-21.04.01-3.12.51-6.13,1.07-9.16.35-1.92,1.36-2.74,2.98-2.72,1.73.02,2,1.44,2.23,2.99.76,5.08.45,10.2.46,15.29,0,3.1.21,6.18.34,9.27.05,1.14.59,1.67,1.41,2.02,1.24.54,2.54.66,3.87.65,3.81-.04,7.63-.01,11.44-.01,3.16,0,4.07-.95,4.12-4.52.05-3.48.01-6.97.01-10.46Z"/>
  <path class="cls-5" d="m420.68,48.31c0-5.11.01-10.23,0-15.34,0-2.96-.86-4.22-3.34-4.68-1.7-.32-3.43-.46-5.15-.55-2.34-.12-3.56-1.22-3.59-3.43-.04-2.5,1.43-4.33,3.59-4.47.14,0,.28,0,.42,0,7.35,0,14.7.02,22.05,0,1.72,0,3.21.75,4.15,2.18,1.56,2.37-.05,5.35-2.88,5.71-2.05.26-4.12.47-6.15.93-2.68.61-3.24,1.47-3.25,4.61-.03,9.91-.03,19.83-.05,29.74,0,1.95-.19,3.85-.99,5.64-.36.8-.64,1.51-1.63,1.39-.86-.1-1.59-.25-2.01-1.29-.66-1.64-1.17-3.27-1.16-5.11.03-5.11.01-10.22,0-15.34Z"/>
  <path class="cls-5" d="m566.57,39.13c0,5.27-.01,10.53,0,15.8.01,4.62.75,5.45,4.81,5.45,4.99,0,9.98.02,14.97,0,1.36,0,2.6.3,3.7,1.21,1.61,1.33,1.41,4.22-.33,5.36-1.35.89-2.76,1.35-4.34,1.34-6.24-.04-12.47,0-18.71-.03-2.74-.01-4.13-1.33-4.79-4.29-.5-2.26-.79-4.53-.74-6.87.21-10.29-.69-20.57-.4-30.87.06-2.32.18-4.63,1.13-6.76.82-1.84,2.72-2,3.72-.28.69,1.18,1,2.48.99,3.93-.05,5.34-.02,10.69-.02,16.03Z"/>
  <path class="cls-5" d="m367.86,23.4c-.12-1.11,1.44-2.86,1.44-2.86,0,0,.6-.27,1.4-.49,1.8-.51,3.79.32,4.53,2.07.09.2.14.4.16.58.06.87.15,1.74-.33,2.6-.68,1.21-1.15,2.16-3.7,2.06-2.3-.09-2.95-1.29-3.48-2.75-.14-.38-.02-.81-.02-1.21Z"/>
  <path class="cls-5" d="m394.17,23.4c-.12-1.11,1.44-2.86,1.44-2.86,0,0,.6-.27,1.4-.49,1.8-.51,3.79.32,4.53,2.07.09.2.14.4.16.58.06.87.15,1.74-.33,2.6-.68,1.21-1.15,2.16-3.7,2.06-2.3-.09-2.95-1.29-3.48-2.75-.14-.38-.02-.81-.02-1.21Z"/>
  <rect class="cls-1" x="71.7" y="100.54" width="65.38" height="94.07" rx="2.89" ry="2.89"/>
  <rect class="cls-1" x="153.86" y="100.54" width="65.38" height="94.07" rx="2.89" ry="2.89"/>
  <rect class="cls-1" x="236.02" y="100.54" width="65.38" height="94.07" rx="2.89" ry="2.89"/>
  <rect class="cls-1" x="318.18" y="100.54" width="65.38" height="117.48" rx="2.89" ry="2.89"/>
  <rect class="cls-1" x="400.34" y="100.54" width="65.38" height="94.07" rx="2.89" ry="2.89"/>
  <rect class="cls-1" x="482.5" y="100.54" width="65.38" height="94.07" rx="2.89" ry="2.89"/>
  <rect class="cls-1" x="564.66" y="100.54" width="65.38" height="94.07" rx="2.89" ry="2.89"/>
  <rect class="cls-4" x="78.74" y="108.09" width="51.29" height="23.44"/>
  <rect class="cls-4" x="78.74" y="135.86" width="51.29" height="23.44"/>
  <rect class="cls-4" x="78.74" y="163.62" width="51.29" height="23.44"/>
  <rect class="cls-4" x="160.9" y="108.09" width="51.29" height="23.44"/>
  <rect class="cls-4" x="160.9" y="135.86" width="51.29" height="23.44"/>
  <rect class="cls-4" x="160.9" y="163.62" width="51.29" height="23.44"/>
  <rect class="cls-4" x="243.06" y="108.09" width="51.29" height="23.44"/>
  <rect class="cls-4" x="243.06" y="135.86" width="51.29" height="23.44"/>
  <rect class="cls-4" x="243.06" y="163.62" width="51.29" height="23.44"/>
  <rect class="cls-4" x="325.22" y="108.09" width="51.29" height="23.44"/>
  <rect class="cls-4" x="325.22" y="135.86" width="51.29" height="23.44"/>
  <rect class="cls-4" x="325.22" y="163.62" width="51.29" height="23.44"/>
  <rect class="cls-4" x="407.38" y="108.09" width="51.29" height="23.44"/>
  <rect class="cls-4" x="407.38" y="135.86" width="51.29" height="23.44"/>
  <rect class="cls-4" x="407.38" y="163.62" width="51.29" height="23.44"/>
  <rect class="cls-4" x="489.54" y="108.09" width="51.29" height="23.44"/>
  <rect class="cls-4" x="489.54" y="135.86" width="51.29" height="23.44"/>
  <rect class="cls-4" x="489.54" y="163.62" width="51.29" height="23.44"/>
  <rect class="cls-4" x="571.7" y="108.09" width="51.29" height="23.44"/>
  <rect class="cls-4" x="571.7" y="135.86" width="51.29" height="23.44"/>
  <rect class="cls-4" x="571.7" y="163.62" width="51.29" height="23.44"/>
  <rect class="cls-5" x="308.09" y="54.18" width="13.93" height="5.52"/>
  <rect class="cls-2" x="56.14" y="85.22" width="589.46" height="2.15"/>
</svg>