<?xml version="1.0" encoding="UTF-8"?>
<svg id="Layer_1" data-name="Layer 1" xmlns="http://www.w3.org/2000/svg" viewBox="0 0 546.43 391.64">
  <path d="M459.69,36.28c-14.12-6.54-29.97-9-46.2-8.04-21.4.33-43.38,6.26-64.28,19.08-12.6,7.56-23.41,16.96-32.33,27.64-8.62-13.13-19.35-24.69-32.28-33.93C254.28,15.34,215.13-.13,172.86,0v.02C114.27-.94,66.28,27.41,35.89,68.64c-8.75,11.39-16.04,24.43-21.71,38.42C6.14,126.37,1.39,147.04.38,167.95c-2.5,39.62,7.23,79.35,31.93,107.37,7.63,11.44,17.12,21.46,28.56,29.52,66.1,57.4,159.53,50.49,221.13,1.64,17.21-11.58,30.97-27.96,41.08-47.13,1.29-2.21,2.52-4.47,3.72-6.76,21.2,20.4,48.21,31.51,75.97,34.03,10.71,1.18,21.9.79,33.09-1,15.51-2.35,30.62-7.33,44.43-14.82,26.39-13.79,48.1-35.48,56.48-62.22,4.37-9.34,7.11-19.32,7.84-29.79,11.14-64.72-29.62-121.97-84.9-142.5ZM444.11,46.51c2.73.87,5.41,1.9,8.03,3.09-20.28,53.52-60.88,86.57-109.29,91.33-.8-4.28-1.75-8.5-2.86-12.67,45.86-7.6,91.29-38.85,101.73-82.3.8.17,1.6.35,2.39.54ZM295.59,82.53h0M294.99,264.53,339.12,74.26c10.7-9.24,23.05-16.9,36.09-22.36,16.46-6.54,34.47-9.49,52.51-7.65-12.66,36.6-51.37,64.76-92.1,70.07-.91-2.52-1.87-5.01-2.9-7.48-2.19-6.03-4.74-11.9-7.6-17.56,4.16-5.38,8.86-10.41,13.99-15.02ZM49.83,264.86c-6.9-8.95-12.82-18.75-17.56-29.33-11.85-29.78-14.49-65.18-8.11-97.61,4.81-19.6,13.3-38.2,25.47-53.98,37.95,49.15,39.84,127.28.21,180.91ZM69.94,286.26c-2.42-2.13-4.78-4.33-7.07-6.61,17.35-20.06,36.17-66.67,36.17-105.35,0-46.16-21.42-87.21-37.41-106.6,3.37-3.55,6.91-6.95,10.59-10.18,61.48,68.27,60.1,153.58,1.17,231.14-1.17-.77-2.32-1.58-3.45-2.4ZM89.37,300.82c61.59-76.73,64.37-194.22-2.46-254.76,24.92-17.19,54.73-27.23,85.93-26.58h0c33.04-.52,62.28,9.45,86.14,26.16-67.68,60.75-64.66,179.22-2.2,256.13-52.21,34.66-118.25,30.31-167.41-.94ZM281.1,281.64c-2.88,2.51-5.9,4.85-9.07,7.02-59.44-75.97-59.15-166.39,1.45-231.47,3.18,2.87,6.24,5.87,9.16,8.99-45.52,58.19-52.44,160.48.72,213.12-.75.8-1.51,1.58-2.27,2.35ZM511.25,224.07c-14.5,19.18-36.19,34.63-59.47,43.14-14.44,4.53-29.68,6.32-44.53,4.64,16.78-43.45,66.17-75.03,115.98-70.45-3.06,7.9-7.05,15.52-11.99,22.67ZM529.15,180.18c-.42,2.38-.92,4.75-1.49,7.1-19.61-3.34-56.83,2.71-81.65,17.74-29.62,17.94-47.62,47.64-53.85,65.44-3.59-.78-7.14-1.73-10.65-2.83,19.9-65.98,75.17-98.25,147.84-90.59-.04,1.05-.11,2.1-.2,3.14ZM530.93,162.06c-73.17-9.69-149.62,34.19-162.49,100.6-13.04-5.86-25.01-14.07-35.01-24.4,7.98-19.67,12.43-41.59,12.29-65.39.02-5.64-.23-11.21-.75-16.71,52.01-6.02,101.92-47.25,121.49-101.87,42.53,20.03,65.41,64.08,64.47,107.77ZM295.59,82.53c45.2,45.2,37.07,144.34-.59,182-37.66-37.66-36.96-144.45.59-182"/>
  <path d="M368.17,314.36c-50.79.86-50.8,76.42,0,77.29,50.79-.86,50.8-76.42,0-77.29ZM368.17,380.75c-36.48-.62-36.47-54.89,0-55.51,36.48.62,36.47,54.89,0,55.51Z"/>
</svg>