<?xml version="1.0" encoding="utf-8"?>
<!-- Generator: Adobe Illustrator 27.6.0, SVG Export Plug-In . SVG Version: 6.00 Build 0)  -->
<svg version="1.1" id="Layer_2_00000131364283410205982070000015091216340597963928_"
	 xmlns="http://www.w3.org/2000/svg" xmlns:xlink="http://www.w3.org/1999/xlink" x="0px" y="0px" viewBox="0 0 99 99"
	 style="enable-background:new 0 0 99 99;" xml:space="preserve">
<style type="text/css">
	.st0{fill:none;stroke:#000000;stroke-width:9;stroke-miterlimit:10;}
	.st1{fill:none;stroke:#000000;stroke-width:2;stroke-miterlimit:10;}
</style>
<circle class="st0" cx="49.5" cy="49.5" r="45"/>
<circle class="st1" cx="49.5" cy="49.5" r="34.3"/>
<path d="M76.3,61.9l-6,0.6c-1,0.3-2.1,0.1-3.1,0.6c-0.5,0.2-0.8,0.7-0.8,1.3c0,0.1,0,0.3,0,0.4c0,0.6-0.5,1.1-1.1,1.3
	c-0.8,0.2-1.6,0.5-2.5,0.5c-0.4,0.4-0.5,0.9-0.8,1.3c0.1,2.4-2.4,2.1-2.7,3.9c-0.1,0.2-0.3,0.8-0.3,0.8h-1.1
	c-0.1-0.1-0.1-0.1-0.2-0.2c0.1-0.5-0.2-1.5-0.1-1.5c-0.1-0.8-0.2-1.6-0.1-2.3c-0.3-0.4,0.1-0.9-0.2-1.3c0.1-1-0.1-2.3-0.1-3.4
	c-0.1-0.1-0.2-0.2-0.3-0.2c0-0.4,0-0.8-0.1-1.1c-0.1-2.6-0.2-5.4-0.2-8c0.1-1-0.2-2.1-0.2-3.2c0-0.2,0-0.3,0.1-0.5
	c0.2-1-0.2-2.7-0.2-3.7c0-0.1,0-0.2,0.1-0.4c0.9-3.1,0.4-6.6,0.6-9.9c0,0,0-0.1,0-0.1c-0.1-2.3-0.6-5,0.8-6.9
	c0.2-0.3,0.3-0.7,0.2-1.1c-0.2-0.9-0.4-2-1.3-1.9c-0.3,0-0.5,0-0.7-0.1c-0.6-0.3-1.2-0.5-1.8-0.9c-1.1,0.3-2.4-0.7-3.5-1.2
	c0-0.1,0-0.2,0-0.3c-0.1-0.1-0.3-0.1-0.4-0.2c-0.1,0.1-0.3,0.1-0.5,0.1c-0.3,0-0.6,0.1-0.8,0.2c-0.9,0.6-1.7,1.7-2.8,1.5
	c-0.8,0.6-1.7,0.8-2.7,0.9c-0.3,0-0.6,0.2-0.8,0.4c-0.1,0.2-0.3,0.3-0.5,0.4c-0.3,0.3-0.5,0.7-0.6,1.1c0,0.4,0,0.8,0,1.2
	c0,0.3,0.2,0.7,0.4,0.9c1.4,1.4,0.5,5.3,0.6,7.2c0.1,1.9,0.3,4,0,5.9c0.3,0.5,0,1.1,0.2,1.6c0.1,0.1,0.3,0,0.4,0.1
	c-0.1,0.2,0.2,0.2,0.3,0.3c0.4,5.6,0.3,11.3,0,16.8c0,0.3-0.1,0.7-0.4,0.9c-1.1,1-3.2-0.3-4.7-0.3c-0.2,0-0.4,0-0.5,0.1
	c-1.8,0.7-2.5,2.7-2.3,4.4c0.9,0.7-0.9,0.8-1.4,0.7c-0.1,0.1-0.2,0.2-0.3,0.2c-0.5,0.3-1.1,0.4-1.6,0.1c0,0,0,0,0,0
	c-0.2-0.1-0.4-0.2-0.6-0.2c-0.7-0.1-1.4-0.1-2.1-0.2c-0.1-0.3-0.3-0.4-0.4-0.6c-1,0.4-2.2-1.3-3.5-0.7c-1.1,0.9-2,2.1-2.4,3.5
	l-0.3,0.9c0.1,1.5,2.4,2.4,3.2,3.6c0.1,0.2,0.2,0.4,0.4,0.5c1.3,0.9,2.4,2.3,4.1,2.3c0.4,0,0.7,0.2,0.9,0.5c0.5,0,0.7,0.4,0.8,0.9
	c0,0.3,0.2,0.5,0.3,0.7c0-0.1,0.1-0.1,0.1-0.2c0.2-0.2,0.4-0.3,0.7-0.3s0.5,0.1,0.7,0.3c0.2,0.2,0.3,0.4,0.3,0.7
	c0,0.1,0,0.2-0.1,0.3c0.2,0.1,0.3,0.2,0.5,0.3c1.1,0.4,1.9,1.5,3.2,1.4c2,0.9,4.4,0.8,6.4,1.6c0.2,0.1,0.5,0.1,0.7,0.1
	c2.9-0.4,10.1,1.1,11.7-1.1c0.3-0.4,0.6-0.7,1.1-0.7l9.1-3v-5.2H65c-0.3,0-0.5-0.1-0.7-0.2s-0.2-0.3-0.2-0.5c0-0.2,0.1-0.4,0.2-0.5
	s0.4-0.2,0.7-0.2h5.5c0.3,0,0.5,0.1,0.7,0.2s0.2,0.3,0.2,0.5s-0.1,0.4-0.2,0.5s-0.4,0.2-0.7,0.2h-1.9v4.7l0.1,0
	c0.2-0.5,0.6-1.1,1.1-1.3c1.9-1.8,4.2-3.3,5.6-5.6c0.1-0.1,0.1-0.2,0.2-0.2c1.5-1.4,2.7-3.4,3.5-5.3C81.1,65,78.5,62.5,76.3,61.9z
	 M41.3,72.4c-0.1,0.1-0.2,0.2-0.4,0.2c-0.1,0-0.2,0-0.4,0s-0.3,0-0.5,0c-0.3,0-0.6,0.1-0.6,0.3c-0.1,0.2-0.1,0.5-0.1,0.9v0.4h0.5
	c0.7,0,1.1,0.2,1.1,0.6c0,0.3-0.1,0.5-0.3,0.6s-0.5,0.1-0.8,0.1h-0.5v4.9c0,0.4-0.1,0.7-0.3,0.8c-0.2,0.2-0.4,0.3-0.7,0.3
	c-0.3,0-0.5-0.1-0.7-0.3c-0.2-0.2-0.3-0.5-0.3-0.8v-4.9h-0.5c-0.3,0-0.5-0.1-0.6-0.2C36.1,75.2,36,75,36,74.8c0-0.4,0.3-0.7,0.9-0.7
	h0.4v-0.6c0-0.6,0.1-1,0.2-1.4c0.1-0.3,0.4-0.6,0.8-0.8c0.4-0.2,0.8-0.2,1.5-0.2c1.1,0,1.6,0.3,1.6,0.8
	C41.5,72.2,41.4,72.3,41.3,72.4z M47.4,72.4c-0.1,0.1-0.2,0.2-0.4,0.2c-0.1,0-0.2,0-0.4,0s-0.3,0-0.5,0c-0.3,0-0.6,0.1-0.6,0.3
	c-0.1,0.2-0.1,0.5-0.1,0.9v0.4h0.5c0.7,0,1.1,0.2,1.1,0.6c0,0.3-0.1,0.5-0.3,0.6s-0.5,0.1-0.8,0.1h-0.5v4.9c0,0.4-0.1,0.7-0.3,0.8
	c-0.2,0.2-0.4,0.3-0.7,0.3c-0.3,0-0.5-0.1-0.7-0.3c-0.2-0.2-0.3-0.5-0.3-0.8v-4.9H43c-0.3,0-0.5-0.1-0.6-0.2
	c-0.2-0.1-0.2-0.3-0.2-0.5c0-0.4,0.3-0.7,0.9-0.7h0.4v-0.6c0-0.6,0.1-1,0.2-1.4c0.1-0.3,0.4-0.6,0.8-0.8c0.4-0.2,0.8-0.2,1.5-0.2
	c1.1,0,1.6,0.3,1.6,0.8C47.5,72.2,47.5,72.3,47.4,72.4z M62.5,79.5c0,0.2,0,0.4-0.1,0.5s-0.1,0.2-0.2,0.4s-0.3,0.2-0.4,0.3
	c-0.5,0.3-1,0.5-1.5,0.6s-1,0.2-1.6,0.2c-0.7,0-1.3-0.1-1.8-0.3s-1-0.5-1.4-0.9s-0.7-0.9-0.9-1.4s-0.3-1.2-0.3-1.8
	c0-0.7,0.1-1.3,0.3-1.8s0.5-1,0.9-1.4s0.9-0.7,1.4-0.9s1.2-0.3,1.9-0.3c0.6,0,1.1,0.1,1.5,0.2s0.8,0.3,1.1,0.6s0.5,0.5,0.6,0.7
	s0.2,0.5,0.2,0.7c0,0.2-0.1,0.4-0.2,0.6s-0.4,0.2-0.6,0.2c-0.1,0-0.2,0-0.4-0.1s-0.2-0.1-0.3-0.2c-0.2-0.3-0.4-0.6-0.5-0.8
	s-0.3-0.3-0.6-0.4s-0.6-0.2-1-0.2c-0.4,0-0.8,0.1-1.1,0.2s-0.6,0.3-0.8,0.6s-0.4,0.6-0.5,1s-0.2,0.8-0.2,1.3c0,1,0.2,1.8,0.7,2.3
	s1.1,0.8,1.9,0.8c0.4,0,0.8-0.1,1.1-0.2s0.7-0.3,1.1-0.5v-1.4h-1.3c-0.3,0-0.6,0-0.7-0.1s-0.2-0.3-0.2-0.5c0-0.2,0.1-0.3,0.2-0.5
	s0.3-0.2,0.6-0.2h2c0.2,0,0.4,0,0.6,0.1s0.3,0.1,0.4,0.3s0.2,0.4,0.2,0.7V79.5z"/>
</svg>
