<?xml version="1.0" encoding="utf-8"?>
<!-- Generator: Adobe Illustrator 27.6.0, SVG Export Plug-In . SVG Version: 6.00 Build 0)  -->
<svg version="1.1" id="Layer_1" xmlns="http://www.w3.org/2000/svg" xmlns:xlink="http://www.w3.org/1999/xlink" x="0px" y="0px"
	 viewBox="0 0 183.9 40.9" style="enable-background:new 0 0 183.9 40.9;" xml:space="preserve">
<style type="text/css">
	.st0{fill:#121416;}
	.st1{stroke:#000000;stroke-miterlimit:10;}
</style>
<g>
	<path class="st0" d="M78.6,21.9c0-6.8-4.1-11-10.4-11s-10.4,4.3-10.4,11S61.8,33,68.2,33C74.5,33,78.6,28.7,78.6,21.9 M74.7,21.9
		c0,5.3-2.8,8-6.4,8s-6.4-2.7-6.4-8s2.8-7.9,6.4-7.9S74.7,16.6,74.7,21.9"/>
	<path class="st0" d="M85.4,10.9h-3.8v21.4h13.8v-3.2h-10V10.9z"/>
	<path class="st0" d="M106.7,10.9v21.4h14.4v-3.2h-10.6v-6.2h10v-3.2h-10v-5.6h10.6v-3.2L106.7,10.9z M139.2,10.9v17l-8.9-17h-5.2
		v21.4h3.8v-17l8.9,17h5.2V10.9H139.2z M146.3,10.9v3.2h6.8v18.2h3.8V14.1h6.8v-3.2L146.3,10.9z M167,10.9v21.4h14.4v-3.2h-10.6
		v-6.2h10v-3.2h-10v-5.6h10.6v-3.2L167,10.9z"/>
	<path class="st0" d="M47.4,32.2h2.1c4,0,5.3-1,5.3-5.4v-16H51v15.8c0,2.3-0.8,2.4-3.1,2.3h-0.5V32.2z"/>
	<path class="st0" d="M99.1,10.9h3.8v21.4h-3.8V10.9z"/>
</g>
<path class="st1" d="M27.8,20.4c-8.6,2.2-9.3,16.7-9.3,16.7c0-20.6-10.9-23.7-10.9-23.7C21.9,17,20.1,8.3,19.8,7.2V7.1v0.1
	C22.5,18.1,27.8,20.4,27.8,20.4 M18.2,11.2c0,1.1-2.4,2-5.4,2s-5.5-0.9-5.5-2s2.4-2,5.5-2C15.7,9.2,18.2,10.1,18.2,11.2 M39,20.7
	c0-3.8-1.1-7.3-3.1-10.2c-0.3,0-0.7,0-1,0C26.7,10.5,20,8.6,20,6.3c0-1.4,2.3-2.6,5.8-3.4c-1.7-0.5-3.6-0.8-5.5-0.8
	C10,2.1,1.7,10.4,1.7,20.7S10,39.3,20.3,39.3C30.7,39.4,39,31,39,20.7"/>
</svg>
