<?xml version="1.0" encoding="utf-8"?>
<!-- Generator: Adobe Illustrator 27.6.0, SVG Export Plug-In . SVG Version: 6.00 Build 0)  -->
<svg version="1.1" id="Bildmarke__x28_2_X_x29__und_Wortmarke__x28_2_X_x29_"
	 xmlns="http://www.w3.org/2000/svg" xmlns:xlink="http://www.w3.org/1999/xlink" x="0px" y="0px" viewBox="0 0 174.9 43.1"
	 style="enable-background:new 0 0 174.9 43.1;" xml:space="preserve">
<style type="text/css">
	.st0{stroke:#000000;stroke-width:0.25;stroke-miterlimit:10;}
	.st1{stroke:#000000;stroke-miterlimit:10;}
</style>
<g>
	<g>
		<path class="st0" d="M47.6,3c0,0-2.4-0.3-4-0.2c-1.5,0-2.4,0.9-2.4,2.2c0,1.6,1.2,1.7,2.6,2.3c1.4,0.5,4.6,1.5,4.6,5.3
			c0,5.1-4,5.3-5.2,5.3c-2,0-4.7-0.2-4.7-0.2v-2.8c0,0,3.1,0.3,4.7,0.3c1.5,0,2.3-0.9,2.3-2.5c0-1.2-0.6-2-2.4-2.6
			c-1.8-0.6-4.7-1.3-4.7-5c0-4.8,4.1-5,5.3-5c2.2,0,4,0.2,4,0.2L47.6,3L47.6,3z"/>
		<path class="st0" d="M57,3v14.7h-2.9V3h-3.7V0.3h10.2V3H57z"/>
		<path class="st0" d="M70.1,13.7h-5.4l-0.9,4h-2.9l4-17.4H70l3.9,17.4H71L70.1,13.7z M69.4,11l-1.8-8H67l-1.8,8H69.4z"/>
		<path class="st0" d="M87.4,13.4c0,4.2-3.6,4.3-5.3,4.3c-1.6,0-5.4,0-5.4,0V0.3c0,0,3.8,0,5.4,0s5.3,0,5.3,4.2V13.4z M84.5,5.5
			c0-1.9-0.3-2.5-2.4-2.5c-1.5,0-2.5,0-2.5,0v11.9c0,0,1,0,2.5,0c2.1,0,2.4-0.6,2.4-2.6V5.5z"/>
		<path class="st0" d="M96.5,3v14.7h-2.9V3H90V0.3h10.2V3H96.5z"/>
		<path class="st0" d="M127.6,3v4.1h4v2.7h-4v5.1h5.6v2.7h-8.5V0.3h8.5V3H127.6z"/>
		<path class="st0" d="M169.2,3v4.1h3.8v2.7h-3.8v5.1h5.6v2.7h-8.5V0.3h8.5V3H169.2z"/>
		<path class="st0" d="M145.1,17.6c-0.8,0,0.4-7.2-1.6-7.2c-0.4,0-3.4,0-3.4,0v7.2h-2.9V0.3c0,0,4,0,4.7,0c3.4,0,5.7,1.3,5.7,4.7
			c0,2.8-0.8,3.5-2.2,4.1c3.2,0,1.3,8,2.5,8.6C147.5,17.6,145.8,17.6,145.1,17.6z M142.1,7.8c2.2,0,2.7-0.6,2.7-2.9
			c0-1.8-1.3-2.1-2.7-2.1c-1.2,0-2,0.1-2,0.1v4.7C140.2,7.7,140.9,7.8,142.1,7.8z"/>
		<polygon class="st0" points="119,0.3 116.1,13.4 113.3,0.3 110.5,0.3 111,2.9 108.6,13.4 105.9,0.3 103.1,0.3 106.7,17.6 
			110.6,17.6 112.4,9.3 114.1,17.6 118,17.6 121.8,0.3 		"/>
		<polygon class="st0" points="159.7,17.6 162.9,17.6 158.4,6.4 162.3,0.3 159.1,0.3 154.6,7.2 154.6,0.3 151.8,0.3 151.8,17.6 
			154.6,17.6 154.6,12.6 156.5,9.6 		"/>
	</g>
	<g>
		<path class="st0" d="M98.4,42.8c-0.8,0,0.4-7.2-1.6-7.2c-0.4,0-3.4,0-3.4,0v7.2h-2.8V25.4c0,0,4,0,4.7,0c3.4,0,5.6,1.4,5.6,4.7
			c0,2.8-0.8,3.5-2.2,4.1c3.2,0,1.3,8,2.4,8.5C100.8,42.8,99.1,42.8,98.4,42.8z M95.4,33c2.2,0,2.7-0.6,2.7-2.9
			c0-1.8-1.3-2.1-2.7-2.1c-1.2,0-2,0.1-2,0.1v4.7C93.5,32.9,94.2,33,95.4,33z"/>
		<path class="st0" d="M81.8,28.1v4.2h3.8V35h-3.8v5.1h5.6v2.7h-8.5V25.4h8.5v2.7H81.8z"/>
		<path class="st0" d="M48.9,32.9v9.9c0,0-5.8,0-6.6,0c-1.6,0-3.8-1.1-3.8-4.3v-8.8c0-4.3,4.4-4.5,6-4.5s3.8,0.2,3.8,0.2v2.8
			c0,0-2.3-0.2-3.8-0.2c-2.5,0-3.2,0.5-3.2,2.5v7.1c0,1.9,0.3,2.8,2.4,2.8c1.5,0,2.2,0,2.2,0v-4.7h-1.5V33L48.9,32.9L48.9,32.9z"/>
		<path class="st0" d="M72.1,28.1v14.7h-2.8V28.1h-3.7v-2.7h10.2v2.7H72.1z"/>
		<path class="st0" d="M113.5,28.1c0,0-2.4-0.3-4-0.2c-1.5,0-2.4,0.9-2.4,2.2c0,1.6,1.2,1.7,2.6,2.3c1.4,0.5,4.6,1.5,4.6,5.4
			c0,5-4,5.3-5.2,5.3c-2,0-4.7-0.2-4.7-0.2V40c0,0,3.1,0.3,4.7,0.3c1.5,0,2.3-0.9,2.3-2.5c0-1.2-0.6-2-2.4-2.6s-4.7-1.3-4.7-5
			c0-4.8,4.1-5,5.3-5c2.2-0.1,4,0.2,4,0.2v2.7C113.6,28.1,113.5,28.1,113.5,28.1z"/>
		<path class="st0" d="M126.1,40v2.8h-8.3V25.4h2.9V40H126.1z"/>
		<path class="st0" d="M139.8,30.3c0,1.7,0,5.8,0,7.7c0,5.1-4.6,5.1-5.7,5.1c-1,0-5.6,0-5.6-5.1c0-1.8,0-5.9,0-7.7
			c0-5.1,4.6-5.1,5.6-5.1C135.1,25.1,139.8,25.1,139.8,30.3z M136.9,31.3c0-3.2-1.2-3.4-2.8-3.4s-2.8,0.2-2.8,3.4c0,1.1,0,4.5,0,5.6
			c0,3.2,1.2,3.4,2.8,3.4s2.8-0.2,2.8-3.4C136.9,35.8,136.9,32.4,136.9,31.3z"/>
		<path class="st0" d="M154.1,25.4v17.4h-2.9V35h-5.1v7.8h-2.9V25.4h2.9v6.8h5.1v-6.8C151.2,25.4,154.1,25.4,154.1,25.4z"/>
		<g>
			<path class="st0" d="M62.7,28.1c0-1.2,0-2.2,0-2.7h-2.9c0,0.5,0,1.5,0,2.7H62.7z"/>
			<path class="st0" d="M54.9,28.1c0-1.2,0-2.2,0-2.7H52c0,0.5,0,1.5,0,2.7H54.9z"/>
			<path class="st0" d="M59.8,29.5c0,3.4,0,7.5,0,8c0,2.6-1.4,2.9-2.5,2.9c-0.9,0-2.4-0.2-2.4-2.9c0-0.5,0-4.6,0-8H52
				c0,3.4,0,7.7,0,8.5c0,5.1,4.7,5.1,5.3,5.1c0.7,0,5.3,0,5.3-5.1c0-0.8,0-5.1,0-8.5H59.8z"/>
		</g>
	</g>
</g>
<g>
	<g>
		<path class="st1" d="M4.7,15.1c0-1.1,0.2-2.1,0.5-3L1,9.7c-0.6,1.7-1,3.5-1,5.4s0.4,3.7,1,5.4l4.1-2.4C4.8,17.2,4.7,16.2,4.7,15.1
			"/>
		<path class="st1" d="M17.3,5c2,0.5,3.9,1.5,5.2,3l4.1-2.4c-2.3-2.8-5.6-4.8-9.3-5.4V5z"/>
		<path class="st1" d="M25.4,15.1c0,1.1-0.2,2.1-0.5,3l4.1,2.4c0.6-1.7,1-3.5,1-5.4s-0.4-3.7-1-5.4l-4.1,2.4
			C25.2,13,25.4,14.1,25.4,15.1"/>
		<path class="st1" d="M7.4,8.1c1.4-1.5,3.2-2.6,5.2-3V0.3c-3.7,0.6-7,2.5-9.3,5.4L7.4,8.1z"/>
		<path class="st1" d="M12.7,25.2c-2-0.5-3.9-1.5-5.2-3l-4.1,2.4c2.3,2.8,5.6,4.8,9.3,5.4C12.7,30,12.7,25.2,12.7,25.2z"/>
		<path class="st1" d="M22.6,22.2c-1.4,1.5-3.2,2.6-5.2,3v4.7c3.8-0.6,7.1-2.6,9.3-5.4L22.6,22.2z"/>
	</g>
	<rect x="2.1" y="38.1" class="st1" width="25.8" height="4.7"/>
</g>
</svg>
