<?xml version="1.0" encoding="UTF-8"?><svg id="Layer_2" xmlns="http://www.w3.org/2000/svg" width="314.6296" height="72.8066" viewBox="0 0 314.6296 72.8066"><g id="Layer_1-2"><path d="m314.6296,56.5249c-2.1861.6481-4.426.2167-6.639.3136-1.1859.052-.8388-.9354-.8403-1.5871-.0123-5.2674-.0158-10.5349.0118-15.8022.0056-1.065-.1378-2.0905-.3871-3.1175-.4778-1.9678-1.3724-3.552-3.5643-3.9246-2.367-.4024-4.4241.0015-6.1084,1.9789-1.2564,1.4749-1.8622,2.9727-1.8168,4.954.1192,5.1987-.0091,10.4028.0596,15.6034.0186,1.4076-.2735,2.0721-1.8321,1.9342-1.4968-.1325-3.0166-.0758-4.5223-.0093-1.0566.0466-1.2891-.3448-1.2854-1.3823.0471-13.2335.0647-26.4673.0062-39.7006-.0056-1.276.3223-1.6395,1.5066-1.5477,1.9492.1512,4.4734-.7895,5.7055.3512,1.2579,1.1646.335,3.7294.3916,5.6781.0708,2.4336-.0093,4.8714-.004,7.3073.0008.3694-.1992.8749.1869,1.0854.583.3177.7122-.3412,1.0233-.6269,3.6857-3.3838,10.8203-4.4532,14.856-.3693,1.7857,1.807,2.3852,4.0876,2.9356,6.4278.0571.2426.2088.4628.3167.6934v21.7403Z"/><path d="m.8042,0c3.9386.8787,7.9468,1.4656,11.955,1.5053,3.7486.0372,7.3838,1.0904,11.1275.8908.6564-.035.9569.2643.935.9362-.0235.7227-.0907,1.4609.0191,2.1677.2423,1.5595-.369,2.1878-1.9229,2.3885-4.4823.5791-8.5628,2.1734-12.3295,4.7738-2.6634,1.8387-4.7549,4.2257-7.1664,6.6061-.8539-4.4278-1.835-8.6302-2.2293-12.945C.9972,4.1838-.151,2.2139.0167,0h.7875Z"/><path d="m53.5678,0c.3846,1.4699-.1915,2.9161-.5298,4.2221-.6582,2.541-.5816,5.1836-1.4287,7.6915-.7809,2.312-.3955,4.8985-1.4743,7.3007-1.3946-1.4726-2.7106-2.988-4.1567-4.3657-4.26-4.0585-9.3707-6.3334-15.1928-6.9215-1.5116-.1527-1.9417-.7051-1.8844-2.22.1254-3.3176.0727-3.0085,3.2931-3.4053,4.73-.5828,9.5151-.4388,14.2174-1.3147,1.9809-.369,4.0464-.2589,5.975-.987h1.1813Z"/><path d="m100.0642,26.6747c-3.5809-3.1493-7.636-4.5544-12.1692-3.5675-3.7858.8241-6.3783,3.3162-7.5398,7.0884-1.2406,4.0291-1.3404,8.1508-.1534,12.1767,2.0024,6.7917,7.8164,9.0948,13.9148,7.336,3.2637-.9412,3.4871-1.3957,3.2413-4.3182-.0715-.8506-.0202-1.7117-.0231-2.568q-.0104-3.0221-3.1349-3.0183c-1.5092.0014-3.0192-.0315-4.5274.0073-.9735.025-1.3611-.286-1.4054-1.354-.2165-5.2185-.2504-5.2201,4.9784-5.2266,3.0841-.0039,6.1727.1046,9.2504-.0355,1.6217-.0738,1.9239.5091,1.8979,1.9876-.0858,4.873-.1757,9.7546.0305,14.6203.098,2.3125-.699,3.4747-2.7059,4.4787-3.68,1.841-7.4873,2.9739-11.582,3.0012-9.5372.0635-16.7925-6.6481-18.107-16.1491-.5984-4.3254-.4889-8.4451.8445-12.5559,2.1546-6.6423,6.3492-10.8996,13.3929-12.4316,5.4785-1.1916,10.2175.1195,14.8555,2.8166,1.6629.967,2.03,2.0111.9798,3.6772-.7539,1.1959-1.2896,2.5304-2.0379,4.0348Z"/><path d="m269.0083,24.8997c6.9819-.3517,12.4987,4.6384,13.8844,11.4801.7731,3.8174.7677,7.4964-.2609,11.0409-2.1959,7.5667-9.3987,11.6449-16.8643,9.8076-4.6508-1.1445-7.7659-4.0525-9.4229-8.3822-1.5167-3.9629-1.6246-8.1495-.7794-12.3333.7371-3.6488,2.2866-6.7884,5.3454-9.0814,2.4874-1.8647,5.2344-2.7277,8.0977-2.5318Zm6.6881,16.2847c-.0739-1.8792.1233-3.7641-.7944-5.5684-1.1723-2.3049-3.0147-3.7586-5.4688-3.9072-2.3026-.1395-4.4287.8846-5.5157,3.0882-1.9148,3.8818-1.9054,7.9649-.4759,11.9703,1.6846,4.7205,8.3476,4.8918,10.7527,1.3566,1.4617-2.1485,1.5547-4.5059,1.5022-6.9395Z"/><path d="m179.8371,43.4927c-2.4919,0-4.9843.0266-7.4756-.012-1.1263-.0175-1.2971.242-1.176,1.4836.5004,5.1305,6.6628,7.5132,10.1862,5.7937,1.4393-.7025,3.1325-.8673,4.2713-2.2168.4519-.5356,1.0616-.2133,1.2007.3784.3364,1.431,1.2793,2.5352,1.918,3.7967.4513.8913.1351,1.3606-.5063,1.7917-5.5771,3.749-14.6478,4.9312-20.3899-.6926-2.5173-2.4655-3.254-5.8593-4.0697-9.1707-1.4117-5.731,1.4991-15.6379,7.9017-18.5462,6.1562-2.7964,14.718-1.5198,17.1514,6.6599.9402,3.1605.4087,6.52.0863,9.7879-.0999,1.0129-.8777.9526-1.6225.9486-2.4918-.0133-4.9838-.005-7.4757-.0022Zm-3.0233-5.93v.0099c1.4364,0,2.873.0111,4.3092-.0068.4287-.0053.9011.1057,1.1735-.4436.9053-1.8252-.5878-4.9418-2.669-5.5268-3.7566-1.0559-6.2891.2555-7.7789,4.0294-.4838,1.2256-.7709,2.2391,1.2477,1.968,1.2187-.1637,2.477-.0301,3.7175-.0301Z"/><path d="m128.998,53.3939c-4.2519,3.7961-8.8103,4.9589-13.9809,2.736-2.7986-1.2032-4.2047-3.7785-4.6355-6.4066-1.2493-7.6223-.3598-15.3548-.5732-23.0385-.0174-.6278.2007-1.0151.898-.9632.0652.0048.1316.0034.1967-.0027q6.4533-.6012,6.4528,5.8554c-.0003,4.0833-.0021,8.1667.0006,12.25.0024,3.6037,1.218,5.6016,3.8244,6.2983,2.6311.7033,5.2783-.7098,6.9946-3.4624.7375-1.1828,1.0287-2.3229,1.0159-3.6835-.049-5.2025.014-10.4062-.0431-15.6086-.0134-1.2205.2126-1.8005,1.5899-1.6683,1.3651.1311,2.7598.1117,4.1285-.0014,1.3928-.115,1.7624.391,1.7541,1.7683-.053,8.759-.0144,17.5186-.0121,26.278.0008,3.0925-.0072,3.0924-3.0865,3.0702-.2624-.0019-.5249-.0015-.7873-.0027q-3.3073-.0162-3.7367-3.4184Z"/><path d="m236.0801,27.2442c-.62,2.0581-1.2576,4.1749-1.9042,6.3214-2.7079-1.0481-5.254-2.1491-8.1767-2.018-1.8145.0814-2.9716,1.0257-3.3284,2.4755-.3421,1.3903.8824,2.2447,2.1608,2.836,2.6282,1.2155,5.4346,1.9137,8.0232,3.3282,4.3443,2.374,4.2652,9.1106,2.2383,12.0585-3.0941,4.5-7.5789,5.4635-12.5782,4.9079-2.3041-.2561-4.6483-.5139-6.7362-1.7679-.775-.4655-1.13-.8061-.8048-1.8022.5397-1.6534.8622-3.3782,1.3136-5.2263,1.9403,1.4613,4.158,1.8473,6.2655,2.477,1.4372.4294,2.9178.3917,4.4003-.2847,1.3-.5932,2.0653-1.4716,2.0542-2.8177-.0106-1.2842-.87-2.1027-2.0118-2.6884-2.1945-1.1256-4.6237-1.6115-6.8396-2.7177-3.07-1.5327-5.0019-3.8703-5.1153-7.2531-.1168-3.4847,1.2565-6.3863,4.4553-8.2591,3.2139-1.8816,6.5364-2.2285,10.1318-1.4396,2.1552.4729,4.3275.8263,6.4523,1.8703Z"/><path d="m144.5348,40.5106c0-2.4344-.0888-4.8734.0348-7.3015.0691-1.3574-.4035-1.6567-1.6528-1.6469-3.1214.0245-3.1219-.0307-3.1065-3.2645.0122-2.5667.0152-2.6438,2.5787-2.5456,1.7162.0657,2.8096-.0408,2.6287-2.3162-.1257-1.5807.1189-3.3721.7846-4.7924.9788-2.0883,3.0836-.3537,4.6295-.8163.7775-.2327,1.3677.0844,1.313,1.1319-.0788,1.5094.0519,3.0329-.0765,4.5358-.1414,1.6542.2855,2.4075,2.1264,2.254,2.0176-.1682,4.0622.023,6.0915-.0474,1.1399-.0395,1.5849.2251,1.599,1.507.0482,4.3882.1065,4.3388-4.2566,4.4095-1.8053.0292-4.1309-.8394-5.2766.3947-1.0341,1.114-.192,3.3881-.2311,5.1498-.0598,2.6961.0491,5.396-.0149,8.0919-.1402,5.9081,3.2312,6.1242,7.2408,4.546,2.2431-.8829,2.1748-1.0161,2.5145,1.3826.0717.5064.1876,1.0758.4798,1.469,1.0596,1.4258.5689,2.2956-.8615,2.9814-3.6721,1.7607-7.5279,2.3391-11.3586.9567-3.8573-1.392-5.0681-4.749-5.1609-8.5791-.0606-2.4987-.0114-5.0001-.0114-7.5004-.0046,0-.0092,0-.0138,0Z"/><path d="m240.8482,33.0126c0-5.6593.0318-11.3188-.0236-16.9775-.013-1.3284.3311-1.9201,1.7559-1.807,1.4332.1137,2.8866.094,4.3232.0046,1.2557-.0782,1.5075.4359,1.5009,1.6117-.0578,10.2653-.0546,20.5309-.0579,30.7964-.0002.787-.0037,1.5934.1545,2.3572.3426,1.6535,1.6922,2.3724,3.2176,1.6252,1.3489-.6606,1.9663-.5002,1.8218,1.1152-.0058.0651.002.1315.0045.1973.1756,4.6255-.3023,5.2089-5.0013,5.3286-2.7124.0691-5.5061-.1181-6.7978-3.1166-.6618-1.5363-.9502-3.2202-.9376-4.9473.0392-5.3957.0144-10.7919.0144-16.1879h.0252Z"/><path d="m201.6356,29.2958c2.7608-4.1659,6.0206-5.0809,10.3431-3.6105.7405.2519,1.2925.6032,1.0146,1.3494-.7473,2.0059.1331,4.2269-.9967,6.2244-1.7506-.5743-3.5817-1.3874-5.5648-.8961-2.8093.6959-4.7189,3.5682-4.6901,6.839.0469,5.325.0231,10.651.1199,15.975.0235,1.2891-.3205,1.794-1.6398,1.7042-1.4349-.0977-2.8887-.1308-4.3196-.0126-1.3649.1128-1.7871-.3021-1.7757-1.7155.0631-7.825.0238-15.6507.0215-23.4763-.0005-1.5782.0559-3.1584-.0065-4.7339-.0374-.944.2748-1.2832,1.2217-1.2394,1.4383.0665,2.8915.1335,4.3202.0015,1.7886-.1653,2.4429.4547,1.9634,2.2238-.0794.2928-.0112.626-.0112,1.3672Z"/><path d="m22.9001,36.7658c-3.8052,1.5558-6.6746,3.8527-9.9084,5.5342-1.9404,1.009-3.8793,2.0553-5.6752,3.2946-.816.5631-1.18.166-1.2856-.3281-.8804-4.1197-2.4812-8.1765-1.1026-12.5159.4502-1.4172.7552-2.8932.9866-4.3644.1894-1.2038.7134-1.2075,1.572-.6943,3.7054,2.2148,7.4097,4.4314,11.1232,6.6324,1.2773.7571,2.5803,1.4705,4.2901,2.4415Z"/><path d="m24.8214,49.5086c0,2.6333-.0704,5.2694.0303,7.8988.0488,1.2736-.4,1.5864-1.569,1.4857-2.8695-.2473-5.3652-1.5781-7.7575-2.9438-2.1886-1.2494-4.1307-2.9571-5.8116-4.9136-.7828-.9112-.7443-1.5331.2808-2.1551,4.6251-2.8063,9.4647-5.2473,13.947-8.3011.9251-.6303.8734.2655.8754.8314.0096,2.6991.0043,5.3983.0046,8.0975Z"/><path d="m24.8216,23.5449c0,2.6975-.0088,5.395.0044,8.0924.0052,1.0494-.1684,1.5531-1.311.7789-4.1053-2.7817-8.4364-5.1861-12.784-7.5585-2.0358-1.1109-2.1392-1.3875-.6089-3.1146,3.5205-3.9731,8.0522-6.2162,13.1147-7.4693,1.0247-.2536,1.6827-.0041,1.6194,1.3777-.1204,2.6261-.0349,5.2617-.0347,7.8934Z"/><path d="m28.9385,40.2478c5.2198,3.0661,10.1261,6.014,15.1093,8.8246,1.1222.6329.7664,1.141.2502,1.7371-3.5873,4.1424-8.1025,6.763-13.3985,8.017-1.1464.2714-2.0583.2458-2.0124-1.5722.141-5.5801.0513-11.1661.0513-17.0065Z"/><path d="m47.1416,46.1483c-4.7913-3.2102-9.754-5.9587-14.6887-8.7551-.3665-.2077-.9801-.2467-.8901-.8742.0668-.4657.5771-.4575.9042-.6482,4.5175-2.6332,9.0453-5.2494,13.5308-7.9367.9363-.561,1.2744-.6192,1.7342.556,2.3224,5.9348,1.9599,11.739-.5905,17.6581Z"/><path d="m45.0757,23.5691c-5.3429,3.1032-10.6055,6.1598-16.1023,9.3524,0-5.1095-.0008-10.0093.0002-14.9091.0008-3.9103.0193-3.9774,3.8465-2.9747,5.0611,1.326,9.0571,4.2557,12.2556,8.5313Z"/><path d="m3.229,54.3054c2.5106,2.3068,4.7137,4.6652,7.376,6.5196,3.849,2.681,8.2104,4.0359,12.7834,4.7012,1.2012.1748,1.5264.5789,1.4542,1.7107-.0879,1.3778-.1178,2.7744.0061,4.1466.1297,1.4363-.6539,1.5939-1.6442,1.289-4.833-1.4876-9.6443-3.0459-14.4685-4.5624-1.4808-.4655-2.9635-.9428-4.4744-1.286-.7081-.1608-1.0384-.4137-1.0367-1.1392.0088-3.7931.0041-7.5863.0041-11.3794Z"/><path d="m50.4135,54.176c0,3.9631-.0065,7.7525.0058,11.5419.0023.7048-.2583.924-.9855,1.1236-3.7347,1.0248-7.4592,2.1025-11.1375,3.3141-2.6372.8687-5.4089,1.283-7.9504,2.4937-.8.3811-1.5858.0933-1.3676-1.1205.0344-.1912.0131-.3935.0093-.5905-.0998-5.126-.0956-5.104,4.7143-6.0789,6.3364-1.2842,11.4056-4.6303,15.4077-9.672.2826-.356.4871-.7805,1.304-1.0113Z"/><path d="m116.8463,20.6079c-2.3755.0318-4.106-1.4029-4.1919-3.4753-.0878-2.117,1.8318-4.033,4.0761-4.0687,2.3323-.037,4.233,1.5621,4.305,3.622.0766,2.1911-1.7372,3.8892-4.1891,3.922Z"/><path d="m129.7138,20.594c-2.3945.0254-3.9609-1.3793-4.091-3.5249-.1485-2.4496,2.0984-4.0185,4.0536-4.0157,2.3442.0033,4.2131,1.599,4.2123,3.6653-.001,2.3996-1.5609,3.8476-4.1748,3.8753Z"/></g></svg>